<svg xmlns="http://www.w3.org/2000/svg" width="1280" height="860" viewBox="0 0 1280 860">
  <defs>
    <filter id="paper"><feTurbulence type="fractalNoise" baseFrequency="0.9" numOctaves="2" result="n"/><feColorMatrix in="n" type="matrix" values="0 0 0 0 0  0 0 0 0 0  0 0 0 0 0  0 0 0 0.018 0"/></filter>
  </defs>
  <rect width="1280" height="860" fill="#fbf8f1"/>
  <rect width="1280" height="860" filter="url(#paper)"/>
  <g transform="translate(70,52) scale(1.25)">
    <circle cx="8" cy="2" r="22" fill="#0fb3a1" opacity="0.16"/>
    <path d="M -22 -6 C -17 -15, 4 -17, 15 -6 C 20 -1, 22 4, 23 8"
      fill="none" stroke="#cdbf9c" stroke-width="6.5" stroke-linecap="round"/>
    <path d="M 11 -7 C 17 -1, 21 3, 23 8" fill="none" stroke="#48ddca"
      stroke-width="1.6" stroke-linecap="round" stroke-dasharray="1.2 3.5"/>
    <circle cx="23" cy="8" r="6.4" fill="#2fd4c0"/>
    <circle cx="21.5" cy="6.5" r="1.7" fill="#fff" opacity="0.95"/>
  </g>
  <text x="108" y="64" font-family="'Segoe Print','Ink Free','Comic Sans MS',cursive" font-size="38" font-style="normal" font-weight="bold" fill="#2b2622" text-anchor="start">How TuskPoint fits together</text>
  <text x="110" y="98" font-family="'Segoe Print','Ink Free','Comic Sans MS',cursive" font-size="21" font-style="italic" font-weight="normal" fill="#6b6258" text-anchor="start">A drop-in checkpointer: your agent stays the same, state moves onto Walrus.</text>
  <rect x="82" y="173" width="296" height="146" rx="14" fill="#ece7df" opacity="0.9"/><path d="M 93.98658093278463 170.0851054526749 L 365.461664951989 169.64156807270234 Q 379.93185185185183 170.00765946502057 379.40998113854596 184.53041923868312 L 380.1251886145405 305.8751534636488 Q 379.7413271604938 320.33750514403295 366.2204183813443 319.40721450617286 L 93.99797153635117 319.6291092249657 Q 80.20635802469135 319.5895730452675 80.08455932784636 305.9821579218107 L 79.5466803840878 183.37010202331962 Q 80.52694444444444 170.56386316872428 93.4690706447188 169.92191615226338 Z" fill="none" stroke="#3a342e" stroke-width="2.4" stroke-linejoin="round" stroke-linecap="round" opacity="1"/><path d="M 94.63798182441701 169.56479852537723 L 365.8869341563786 170.07043810013718 Q 380.2062448559671 169.73699074074074 379.5385425240055 184.6798653978052 L 379.9239146090535 305.6256284293553 Q 380.0564609053498 319.79646604938273 365.5150291495199 320.38196930727025 L 93.79237654320988 319.7900780178326 Q 79.49556584362139 320.51149691358023 79.63410836762688 306.53777692043894 L 79.9589866255144 183.63045353223595 Q 80.12355967078189 169.88208333333333 94.36244684499314 170.21395490397805 Z" fill="none" stroke="#3a342e" stroke-width="2.4" stroke-linejoin="round" stroke-linecap="round" opacity="0.5"/><text x="230" y="224.42000000000002" font-family="'Segoe Print','Ink Free','Comic Sans MS',cursive" font-size="24" font-style="normal" font-weight="bold" fill="#2b2622" text-anchor="middle">Your LangGraph agent</text><text x="230" y="252.14" font-family="'Segoe Print','Ink Free','Comic Sans MS',cursive" font-size="18" font-style="normal" font-weight="normal" fill="#6b6258" text-anchor="middle">researcher → writer</text><text x="230" y="279.86" font-family="'Segoe Print','Ink Free','Comic Sans MS',cursive" font-size="17" font-style="normal" font-weight="normal" fill="#6b6258" text-anchor="middle">(Claude / Cursor / any)</text><rect x="492" y="153" width="316" height="186" rx="14" fill="#fbe3d6" opacity="0.9"/><path d="M 503.49041152263374 149.61342163923183 L 795.9305161179698 149.42626286008232 Q 809.4571810699589 149.8947170781893 810.2533179012346 164.20564900548698 L 810.6372496570644 325.75490997942387 Q 809.92591563786 339.99493312757204 795.9143724279835 340.47380229766804 L 503.93102023319614 339.9150385802469 Q 489.71687242798356 339.6840380658436 490.34024176954733 325.4845481824417 L 489.6784945130315 164.37331532921812 Q 490.43005144032924 150.5620318930041 504.5975925925926 150.50455332647462 Z" fill="none" stroke="#e2683c" stroke-width="2.4" stroke-linejoin="round" stroke-linecap="round" opacity="1"/><path d="M 504.3463391632373 150.1964068930041 L 796.0763614540466 149.33373371056243 Q 809.7883641975309 149.8289866255144 809.6012208504801 163.8509799382716 L 810.2602554869685 326.33213391632376 Q 809.7200617283951 340.5477211934156 795.3098062414266 339.80370113168726 L 504.1200754458162 339.9175711591221 Q 489.50731481481483 340.58867798353907 489.9387620027435 326.5212371399177 L 490.12248799725654 163.95671210562415 Q 489.5501234567901 150.3518569958848 504.5547548010974 149.67025462962962 Z" fill="none" stroke="#e2683c" stroke-width="2.4" stroke-linejoin="round" stroke-linecap="round" opacity="0.5"/><text x="650" y="175.56" font-family="'Segoe Print','Ink Free','Comic Sans MS',cursive" font-size="26" font-style="normal" font-weight="bold" fill="#e2683c" text-anchor="middle">WalrusSaver</text><text x="650" y="203.27999999999997" font-family="'Segoe Print','Ink Free','Comic Sans MS',cursive" font-size="17" font-style="normal" font-weight="normal" fill="#6b6258" text-anchor="middle">drop-in BaseCheckpointSaver</text><text x="650" y="231" font-family="'Segoe Print','Ink Free','Comic Sans MS',cursive" font-size="18" font-style="normal" font-weight="normal" fill="#2b2622" text-anchor="middle">serialize → gzip →</text><text x="650" y="258.71999999999997" font-family="'Segoe Print','Ink Free','Comic Sans MS',cursive" font-size="18" font-style="normal" font-weight="normal" fill="#2b2622" text-anchor="middle">content-addressed blob</text><rect x="492" y="383" width="316" height="106" rx="14" fill="#fbf8f1" opacity="0.9"/><path d="M 503.3341598079561 379.5162234224966 L 796.2899022633745 380.27680126886145 Q 810.1923868312757 380.44350308641975 809.6217575445817 394.46277177640604 L 809.5361419753086 475.35236196844994 Q 809.498158436214 489.42520061728396 796.0519478737997 490.4630238340192 L 504.48052983539094 489.50384859396434 Q 489.99281893004115 489.4624537037037 489.6913974622771 475.98364626200276 L 489.38973251028807 393.79792781207135 Q 489.6763683127572 379.755262345679 504.4067729766804 379.4913057270233 Z" fill="none" stroke="#e2683c" stroke-width="2.4" stroke-linejoin="round" stroke-linecap="round" opacity="1"/><path d="M 503.53041666666667 379.3012662894376 L 796.1736076817558 379.42089763374486 Q 809.8840637860083 379.5308590534979 809.9692489711935 393.8805306927298 L 809.3118227023319 476.3588040123457 Q 809.9416872427984 490.2866306584362 795.772896090535 490.60238768861456 L 504.3037414266118 490.19485853909464 Q 489.7215329218107 489.83129115226336 489.40802469135804 476.53350394375855 L 489.41603052126203 393.39572788065846 Q 489.62360082304525 379.76484053497944 503.34130144032923 380.1405461248285 Z" fill="none" stroke="#e2683c" stroke-width="2.4" stroke-linejoin="round" stroke-linecap="round" opacity="0.5"/><text x="650" y="415.28" font-family="'Segoe Print','Ink Free','Comic Sans MS',cursive" font-size="21" font-style="normal" font-weight="bold" fill="#2b2622" text-anchor="middle">MCP server  ·  11 tools</text><text x="650" y="443" font-family="'Segoe Print','Ink Free','Comic Sans MS',cursive" font-size="16" font-style="normal" font-weight="normal" fill="#6b6258" text-anchor="middle">save · load · fork · verify …</text><path d="M 650.0638545953361 340.6497050754458 Q 649.6130589849108 359.21407407407406 650.0450205761317 379.87449245541836" fill="none" stroke="#e2683c" stroke-width="2" stroke-linecap="round" opacity="1"/><path d="M 650.2592043895747 339.99814128943757 Q 647.5697668038408 362.55349794238685 650.6502469135802 380.2846570644719" fill="none" stroke="#e2683c" stroke-width="2" stroke-linecap="round" opacity="0.55"/><rect x="932" y="153" width="286" height="206" rx="14" fill="#d8efe9" opacity="0.9"/><path d="M 943.9417866941016 150.65389146090536 L 1206.5403275034294 149.8819590192044 Q 1219.997160493827 150.24333847736625 1220.4022239368999 164.58068672839505 L 1220.06311042524 346.6859147805213 Q 1220.1621913580248 360.3954063786008 1205.916364883402 359.4056301440329 L 944.6618192729767 360.0769075788752 Q 930.1827777777778 359.8696965020576 930.3508762002743 346.3953883744856 L 930.0031207133059 163.92160408093278 Q 930.4589197530864 150.26620884773664 943.3724245541838 149.81662808641974 Z" fill="none" stroke="#2f9c8f" stroke-width="2.4" stroke-linejoin="round" stroke-linecap="round" opacity="1"/><path d="M 943.9536814128944 150.68667095336076 L 1206.2223868312758 149.51576731824417 Q 1220.2122942386832 149.60229938271604 1219.5801680384088 164.0387748628258 L 1219.740848765432 345.33021690672155 Q 1220.5513991769546 360.01733024691356 1205.3492472565158 359.8445824759945 L 943.5574588477366 360.2205924211248 Q 929.6793930041152 360.28791666666666 929.727585733882 346.57076045953363 L 930.138883744856 163.8535605281207 Q 930.3962757201646 149.6140586419753 943.7818501371742 149.88397548010974 Z" fill="none" stroke="#2f9c8f" stroke-width="2.4" stroke-linejoin="round" stroke-linecap="round" opacity="0.5"/><g transform="translate(975,192) scale(0.95)">
    <rect x="-20" y="-20" width="40" height="40" rx="11" fill="#0fb3a1"/>
    <circle cx="-6" cy="-3" r="3.6" fill="#fff"/><circle cx="6" cy="-3" r="3.6" fill="#fff"/>
    <circle cx="-6" cy="-3" r="1.5" fill="#0fb3a1"/><circle cx="6" cy="-3" r="1.5" fill="#0fb3a1"/>
    <path d="M -3 5 C -2 8, 2 8, 3 5" fill="none" stroke="#fff" stroke-width="2.2" stroke-linecap="round"/>
    <path d="M -3 6 L -4 13 M 3 6 L 4 13" stroke="#fff" stroke-width="2.4" stroke-linecap="round"/>
  </g><text x="1090" y="184" font-family="'Segoe Print','Ink Free','Comic Sans MS',cursive" font-size="26" font-style="normal" font-weight="bold" fill="#2f9c8f" text-anchor="middle">Walrus</text><text x="1090" y="208" font-family="'Segoe Print','Ink Free','Comic Sans MS',cursive" font-size="14" font-style="normal" font-weight="normal" fill="#6b6258" text-anchor="middle">decentralized blob storage</text><path d="M 1027.2 270.0 L 1024.2 280.0 L 1017.5 287.5 L 1009.5 293.0 L 1000.0 296.0 L 990.3 293.3 L 981.8 288.2 L 976.0 280.0 L 974.5 270.0 L 977.3 260.6 L 982.6 252.6 L 989.8 245.3 L 1000.0 244.1 L 1010.0 245.8 L 1019.3 250.7 L 1022.9 260.5 L 1025.7 270.0 Z" fill="#eafaf6" stroke="#2f9c8f" stroke-width="2.2" stroke-linejoin="round"/><path d="M 1097.2 278.0 L 1096.0 286.7 L 1090.3 293.3 L 1083.4 298.3 L 1075.0 301.6 L 1065.8 300.1 L 1059.7 293.3 L 1053.7 286.8 L 1052.6 278.0 L 1054.1 269.4 L 1059.3 262.3 L 1066.0 256.2 L 1075.0 255.0 L 1083.5 257.4 L 1091.5 261.5 L 1097.2 268.8 L 1099.2 278.0 Z" fill="#eafaf6" stroke="#2f9c8f" stroke-width="2.2" stroke-linejoin="round"/><path d="M 1175.6 270.0 L 1175.3 280.5 L 1169.1 289.1 L 1159.8 293.8 L 1150.0 294.7 L 1140.4 293.2 L 1132.4 287.6 L 1125.3 280.2 L 1123.7 270.0 L 1124.6 259.5 L 1132.1 252.1 L 1140.2 246.4 L 1150.0 244.6 L 1159.5 247.0 L 1169.3 250.7 L 1174.4 259.9 L 1176.9 270.0 Z" fill="#eafaf6" stroke="#2f9c8f" stroke-width="2.2" stroke-linejoin="round"/><text x="1075" y="322" font-family="'Segoe Print','Ink Free','Comic Sans MS',cursive" font-size="14" font-style="normal" font-weight="normal" fill="#6b6258" text-anchor="middle">erasure-coded across nodes,</text><g transform="translate(990,343) scale(0.5)">
    <rect x="-20" y="-20" width="40" height="40" rx="11" fill="#4da2ff"/>
    <path d="M 0 -13 C 9 -2, 12 4, 12 9 A 12 12 0 1 1 -12 9 C -12 4, -9 -2, 0 -13 Z"
      fill="#fff"/>
    <path d="M -6 6 C -6 12, 6 12, 6 5" fill="none" stroke="#4da2ff" stroke-width="2.4" stroke-linecap="round"/>
  </g><text x="1090" y="348" font-family="'Segoe Print','Ink Free','Comic Sans MS',cursive" font-size="14" font-style="normal" font-weight="normal" fill="#6b6258" text-anchor="middle">coordinated on Sui</text><rect x="932" y="408" width="286" height="146" rx="14" fill="#dde8f3" opacity="0.9"/><path d="M 944.290892489712 404.6868964334705 L 1206.1195773319616 404.48461419753085 Q 1220.250715020576 405.55399176954734 1220.152872942387 418.7670867626886 L 1219.7698293895749 541.0790020576131 Q 1220.0805606995884 554.5486522633745 1205.846334876543 555.4565363511659 L 944.3404518175583 555.0382047325103 Q 930.032628600823 555.1322016460905 929.8379449588477 540.4219118655693 L 929.4981112825789 418.8288888888889 Q 930.5069187242798 405.30463991769545 944.5943698559671 404.9298799725652 Z" fill="none" stroke="#3b6ea5" stroke-width="2.4" stroke-linejoin="round" stroke-linecap="round" opacity="1"/><path d="M 944.5094744513032 404.9177211934156 L 1205.4206695816188 405.5436282578875 Q 1219.8133796296297 404.6975205761317 1219.6412079903978 418.3713683127572 L 1219.7925265775034 540.7855469821674 Q 1220.5728549382716 555.377366255144 1206.1599785665294 555.0564969135802 L 943.3736428326474 554.9478360768176 Q 929.5878858024691 554.9794341563786 929.7324528463649 540.6397736625514 L 930.0306850137174 419.0971622085048 Q 929.6584722222223 405.1037242798354 944.2252974965706 404.9878652263375 Z" fill="none" stroke="#3b6ea5" stroke-width="2.4" stroke-linejoin="round" stroke-linecap="round" opacity="0.5"/><g transform="translate(972,437) scale(0.85)">
    <rect x="-20" y="-20" width="40" height="40" rx="11" fill="#3b6ea5"/>
    <path d="M -8 -7 C -15 -7, -15 3, -8 4 C -10 11, 0 13, 2 7 C 10 9, 12 -2, 4 -4 C 5 -12, -5 -13, -8 -7 Z"
      fill="none" stroke="#fff" stroke-width="2.2"/>
    <path d="M 0 -4 L -3 1 L 1 1 L -2 6" fill="none" stroke="#ffd76b" stroke-width="2.2" stroke-linecap="round" stroke-linejoin="round"/>
  </g><text x="1098" y="444" font-family="'Segoe Print','Ink Free','Comic Sans MS',cursive" font-size="24" font-style="normal" font-weight="bold" fill="#3b6ea5" text-anchor="middle">MemWal</text><text x="1075" y="484.41999999999996" font-family="'Segoe Print','Ink Free','Comic Sans MS',cursive" font-size="15" font-style="normal" font-weight="normal" fill="#6b6258" text-anchor="middle">plain-English memory for the run:</text><text x="1075" y="512.14" font-family="'Segoe Print','Ink Free','Comic Sans MS',cursive" font-size="15" font-style="normal" font-weight="normal" fill="#6b6258" text-anchor="middle">a summary per checkpoint →</text><text x="1075" y="539.86" font-family="'Segoe Print','Ink Free','Comic Sans MS',cursive" font-size="15" font-style="normal" font-weight="normal" fill="#6b6258" text-anchor="middle">the agent recalls its own past</text><rect x="492" y="563" width="316" height="116" rx="14" fill="#fbeecb" opacity="0.9"/><path d="M 503.43031978738 559.3001920438958 L 795.9820498971194 559.9419427297668 Q 809.4044393004115 560.1435185185185 809.4392138203018 573.4235922496571 L 809.7273636831276 665.9054663923182 Q 810.2046553497943 680.5529938271605 796.5240337791495 679.5340294924554 L 503.3041589506173 680.4782493141289 Q 490.5937602880658 680.418024691358 490.35144633058985 666.0981704389575 L 490.57910236625514 573.3269581618656 Q 489.7717541152263 560.1386111111111 503.38811814128945 560.1826817558299 Z" fill="none" stroke="#e0a93b" stroke-width="2.4" stroke-linejoin="round" stroke-linecap="round" opacity="1"/><path d="M 503.8188605967078 559.7182596021947 L 796.6284096364883 560.1338786008231 Q 809.57204218107 560.2179115226337 810.290100308642 573.3188203017833 L 809.6434765089164 665.470859053498 Q 809.7907767489712 679.4681275720164 795.6594881687242 679.9953069272976 L 504.04558041838135 680.0393209876544 Q 490.53173353909466 679.5072325102881 489.7936908436214 665.4143861454047 L 489.50138803155005 573.5059310699588 Q 489.79491255144035 559.5352263374485 503.759375 559.4427246227709 Z" fill="none" stroke="#e0a93b" stroke-width="2.4" stroke-linejoin="round" stroke-linecap="round" opacity="0.5"/><text x="650" y="584.42" font-family="'Segoe Print','Ink Free','Comic Sans MS',cursive" font-size="21" font-style="normal" font-weight="bold" fill="#2b2622" text-anchor="middle">local cache</text><text x="650" y="612.14" font-family="'Segoe Print','Ink Free','Comic Sans MS',cursive" font-size="17" font-style="normal" font-weight="normal" fill="#6b6258" text-anchor="middle">ONLY a blob pointer</text><text x="650" y="639.86" font-family="'Segoe Print','Ink Free','Comic Sans MS',cursive" font-size="16" font-style="normal" font-weight="normal" fill="#6b6258" text-anchor="middle">(no state on disk)</text><path d="M 380 240 Q 433.56273576817557 239.0619855967078 488 240" fill="none" stroke="#e2683c" stroke-width="2.4" stroke-linecap="round" /><path d="M 488.02652263374483 240.62513031550068 Q 484.1754340267515 242.5718575903787 476.5693659958898 245.42628033850772" fill="none" stroke="#e2683c" stroke-width="2.4" stroke-linecap="round" opacity="1"/><path d="M 487.60211934156376 240.450109739369 Q 483.68275912963213 242.6026394833828 475.90298739506676 245.8389140833637" fill="none" stroke="#e2683c" stroke-width="2.4" stroke-linecap="round" opacity="0.55"/><path d="M 488.58512345679014 239.3713854595336 Q 481.70860275103126 236.91961017368166 476.2884606460956 234.21651801540173" fill="none" stroke="#e2683c" stroke-width="2.4" stroke-linecap="round" opacity="1"/><path d="M 488.3088683127572 239.52229080932784 Q 480.3862982242823 238.9652068815006 476.65911908230953 233.7106332417392" fill="none" stroke="#e2683c" stroke-width="2.4" stroke-linecap="round" opacity="0.55"/><rect x="378.5" y="209" width="111" height="26" rx="8" fill="#fbf8f1" stroke="#6b6258" stroke-width="1.2" opacity="0.96"/><text x="434" y="228" font-family="'Segoe Print','Ink Free','Comic Sans MS',cursive" font-size="16" font-style="normal" font-weight="normal" fill="#6b6258" text-anchor="middle">checkpoint</text><path d="M 810 230 Q 868.7672539437585 231.2855366941015 928 230" fill="none" stroke="#2f9c8f" stroke-width="2.4" stroke-linecap="round" /><path d="M 927.6541083676269 229.20004115226337 Q 919.3738428059011 232.1719124600632 916.2150587256567 236.01435989955024" fill="none" stroke="#2f9c8f" stroke-width="2.4" stroke-linecap="round" opacity="1"/><path d="M 927.9951371742112 229.90897119341562 Q 920.9947481556953 229.81257089627718 916.3733714828583 234.88131463206054" fill="none" stroke="#2f9c8f" stroke-width="2.4" stroke-linecap="round" opacity="0.55"/><path d="M 928.3213511659808 230.4253086419753 Q 923.9786164684525 226.7171959075637 915.6279805363563 225.09101732953067" fill="none" stroke="#2f9c8f" stroke-width="2.4" stroke-linecap="round" opacity="1"/><path d="M 927.5660836762688 229.68238683127572 Q 924.0587810775061 229.92822471414806 916.1122192194838 224.995009099078" fill="none" stroke="#2f9c8f" stroke-width="2.4" stroke-linecap="round" opacity="0.55"/><rect x="813.5" y="199" width="111" height="26" rx="8" fill="#fbf8f1" stroke="#6b6258" stroke-width="1.2" opacity="0.96"/><text x="869" y="218" font-family="'Segoe Print','Ink Free','Comic Sans MS',cursive" font-size="16" font-style="normal" font-weight="normal" fill="#6b6258" text-anchor="middle">write blob</text><path d="M 928 320 Q 870.9542824074074 321.83727709190674 812 320" fill="none" stroke="#2f9c8f" stroke-width="2.4" stroke-linecap="round" /><path d="M 812.4652331961591 319.47207133058987 Q 817.3035783189274 316.42688040687784 824.1793720013667 314.4620598535362" fill="none" stroke="#2f9c8f" stroke-width="2.4" stroke-linecap="round" opacity="1"/><path d="M 812.208731138546 319.3464334705075 Q 818.4306565082278 316.1811190900054 823.6216353758523 314.15370594407113" fill="none" stroke="#2f9c8f" stroke-width="2.4" stroke-linecap="round" opacity="0.55"/><path d="M 811.5818587105624 319.2059807956104 Q 815.2318087716023 322.95287267954194 824.4713061577453 325.8507522177944" fill="none" stroke="#2f9c8f" stroke-width="2.4" stroke-linecap="round" opacity="1"/><path d="M 812.7179492455418 319.5840466392318 Q 816.2403684423842 321.16637062192876 824.061717680379 325.86832423425534" fill="none" stroke="#2f9c8f" stroke-width="2.4" stroke-linecap="round" opacity="0.55"/><rect x="819.25" y="289" width="101.5" height="26" rx="8" fill="#fbf8f1" stroke="#6b6258" stroke-width="1.2" opacity="0.96"/><text x="870" y="308" font-family="'Segoe Print','Ink Free','Comic Sans MS',cursive" font-size="16" font-style="normal" font-weight="normal" fill="#6b6258" text-anchor="middle">read blob</text><path d="M 810 450 Q 868.4818458504801 461.7048611111111 928 470" fill="none" stroke="#3b6ea5" stroke-width="2.4" stroke-linecap="round" /><path d="M 927.2203909465021 470.3943072702332 Q 919.1582773610318 469.46530894214794 916.1039004010759 473.8659813959557" fill="none" stroke="#3b6ea5" stroke-width="2.4" stroke-linecap="round" opacity="1"/><path d="M 927.4922839506173 469.67113854595334 Q 918.6063432046532 468.7257204647817 916.3115958743269 472.8415781037747" fill="none" stroke="#3b6ea5" stroke-width="2.4" stroke-linecap="round" opacity="0.55"/><path d="M 928.1049176954732 470.17759945130314 Q 919.6511830674468 464.4851652742992 916.7943208674039 462.07450064462034" fill="none" stroke="#3b6ea5" stroke-width="2.4" stroke-linecap="round" opacity="1"/><path d="M 927.9916255144033 469.2470233196159 Q 922.5362859481053 463.62705827841444 917.5057200443587 462.7982455005874" fill="none" stroke="#3b6ea5" stroke-width="2.4" stroke-linecap="round" opacity="0.55"/><rect x="827.75" y="417" width="82.5" height="26" rx="8" fill="#fbf8f1" stroke="#6b6258" stroke-width="1.2" opacity="0.96"/><text x="869" y="436" font-family="'Segoe Print','Ink Free','Comic Sans MS',cursive" font-size="16" font-style="normal" font-weight="normal" fill="#6b6258" text-anchor="middle">summary</text><path d="M 650 490 Q 650.967228223594 526.2463134430727 650 558" fill="none" stroke="#e0a93b" stroke-width="2.4" stroke-linecap="round" /><path d="M 650.2652606310014 558.327242798354 Q 645.9156869912399 554.5980677716076 643.5688294008613 545.702184925931" fill="none" stroke="#e0a93b" stroke-width="2.4" stroke-linecap="round" opacity="1"/><path d="M 650.4136968449932 558.1324691358025 Q 646.0551108595528 552.1794669485623 644.7789940099148 547.0432137325154" fill="none" stroke="#e0a93b" stroke-width="2.4" stroke-linecap="round" opacity="0.55"/><path d="M 649.4806515775034 558.2784362139918 Q 655.3453829676077 550.4127179773689 655.32789213549 546.7694277242849" fill="none" stroke="#e0a93b" stroke-width="2.4" stroke-linecap="round" opacity="1"/><path d="M 649.5994581618655 557.6984773662551 Q 651.8107327618465 551.4311541913606 656.330649337136 547.014160234573" fill="none" stroke="#e0a93b" stroke-width="2.4" stroke-linecap="round" opacity="0.55"/><rect x="608.75" y="511" width="82.5" height="26" rx="8" fill="#fbf8f1" stroke="#6b6258" stroke-width="1.2" opacity="0.96"/><text x="650" y="530" font-family="'Segoe Print','Ink Free','Comic Sans MS',cursive" font-size="16" font-style="normal" font-weight="normal" fill="#6b6258" text-anchor="middle">pointer</text>
  <g transform="translate(1048,838) scale(0.85)">
    <circle cx="8" cy="2" r="22" fill="#0fb3a1" opacity="0.16"/>
    <path d="M -22 -6 C -17 -15, 4 -17, 15 -6 C 20 -1, 22 4, 23 8"
      fill="none" stroke="#cdbf9c" stroke-width="6.5" stroke-linecap="round"/>
    <path d="M 11 -7 C 17 -1, 21 3, 23 8" fill="none" stroke="#48ddca"
      stroke-width="1.6" stroke-linecap="round" stroke-dasharray="1.2 3.5"/>
    <circle cx="23" cy="8" r="6.4" fill="#2fd4c0"/>
    <circle cx="21.5" cy="6.5" r="1.7" fill="#fff" opacity="0.95"/>
  </g>
  <text x="1240" y="834" font-family="'Segoe Print','Ink Free','Comic Sans MS',cursive" font-size="20" font-style="normal" font-weight="bold" fill="#e2683c" text-anchor="end">TuskPoint</text>
  <text x="1240" y="854" font-family="'Segoe Print','Ink Free','Comic Sans MS',cursive" font-size="13" font-style="normal" font-weight="normal" fill="#6b6258" text-anchor="end">verifiable LangGraph checkpoints on Walrus</text>
</svg>