<svg xmlns="http://www.w3.org/2000/svg" width="1280" height="820" viewBox="0 0 1280 820">
  <defs>
    <filter id="paper"><feTurbulence type="fractalNoise" baseFrequency="0.9" numOctaves="2" result="n"/><feColorMatrix in="n" type="matrix" values="0 0 0 0 0  0 0 0 0 0  0 0 0 0 0  0 0 0 0.018 0"/></filter>
  </defs>
  <rect width="1280" height="820" fill="#fbf8f1"/>
  <rect width="1280" height="820" filter="url(#paper)"/>
  <g transform="translate(70,52) scale(1.25)">
    <circle cx="8" cy="2" r="22" fill="#0fb3a1" opacity="0.16"/>
    <path d="M -22 -6 C -17 -15, 4 -17, 15 -6 C 20 -1, 22 4, 23 8"
      fill="none" stroke="#cdbf9c" stroke-width="6.5" stroke-linecap="round"/>
    <path d="M 11 -7 C 17 -1, 21 3, 23 8" fill="none" stroke="#48ddca"
      stroke-width="1.6" stroke-linecap="round" stroke-dasharray="1.2 3.5"/>
    <circle cx="23" cy="8" r="6.4" fill="#2fd4c0"/>
    <circle cx="21.5" cy="6.5" r="1.7" fill="#fff" opacity="0.95"/>
  </g>
  <text x="108" y="64" font-family="'Segoe Print','Ink Free','Comic Sans MS',cursive" font-size="38" font-style="normal" font-weight="bold" fill="#2b2622" text-anchor="start">Crash-proof by construction</text>
  <text x="110" y="98" font-family="'Segoe Print','Ink Free','Comic Sans MS',cursive" font-size="21" font-style="italic" font-weight="normal" fill="#6b6258" text-anchor="start">Every step is a durable, hashed Walrus blob, so a dead process resumes where it stopped.</text>
  <rect x="122" y="303" width="196" height="116" rx="14" fill="#ece7df" opacity="0.9"/><path d="M 133.30257458847737 299.74209705075447 L 305.7405186899863 300.4601851851852 Q 320.5813631687243 300.31241769547324 319.59233281893006 313.7833984910837 L 320.2852151920439 406.08235082304526 Q 320.3778755144033 420.0737448559671 305.7135725308642 420.43395919067217 L 134.35028206447188 420.46933127572015 Q 120.29661008230453 420.22396090534977 120.13296039094651 405.36044581618654 L 120.4023859739369 314.68779320987653 Q 119.53756687242799 299.9630658436214 133.91716306584362 299.82952503429357 Z" fill="none" stroke="#3a342e" stroke-width="2.4" stroke-linejoin="round" stroke-linecap="round" opacity="1"/><path d="M 133.50819358710564 299.80440329218106 L 305.6508701989026 299.6395696159122 Q 319.5995833333333 299.57816872427986 319.53437157064474 313.6858281893004 L 319.9838383058985 405.7759327846365 Q 319.525725308642 420.2246810699588 305.54758659122086 419.3987345679012 L 133.52606567215363 419.43266632373115 Q 120.10742283950617 419.7934156378601 120.01450531550068 405.4097890946502 L 120.14421896433471 314.47643689986285 Q 120.54467592592593 299.8843724279835 134.0017944101509 300.185658436214 Z" fill="none" stroke="#3a342e" stroke-width="2.4" stroke-linejoin="round" stroke-linecap="round" opacity="0.5"/><text x="220" y="337.28" font-family="'Segoe Print','Ink Free','Comic Sans MS',cursive" font-size="22" font-style="normal" font-weight="bold" fill="#2b2622" text-anchor="middle">step -1</text><text x="220" y="365" font-family="'Segoe Print','Ink Free','Comic Sans MS',cursive" font-size="18" font-style="normal" font-weight="normal" fill="#6b6258" text-anchor="middle">initial input</text><path d="M 252.6 500.0 L 253.0 513.7 L 244.1 524.1 L 232.6 530.5 L 220.0 533.9 L 207.7 529.8 L 197.0 523.0 L 188.1 513.2 L 185.4 500.0 L 189.7 487.5 L 195.1 475.1 L 206.7 467.8 L 220.0 464.5 L 232.8 469.1 L 244.5 475.5 L 251.7 486.9 L 255.0 500.0 Z" fill="#d8efe9" stroke="#2f9c8f" stroke-width="2.2" stroke-linejoin="round"/><g transform="translate(220,500) scale(0.42)">
    <rect x="-20" y="-20" width="40" height="40" rx="11" fill="#0fb3a1"/>
    <circle cx="-6" cy="-3" r="3.6" fill="#fff"/><circle cx="6" cy="-3" r="3.6" fill="#fff"/>
    <circle cx="-6" cy="-3" r="1.5" fill="#0fb3a1"/><circle cx="6" cy="-3" r="1.5" fill="#0fb3a1"/>
    <path d="M -3 5 C -2 8, 2 8, 3 5" fill="none" stroke="#fff" stroke-width="2.2" stroke-linecap="round"/>
    <path d="M -3 6 L -4 13 M 3 6 L 4 13" stroke="#fff" stroke-width="2.4" stroke-linecap="round"/>
  </g><text x="220" y="548" font-family="'Segoe Print','Ink Free','Comic Sans MS',cursive" font-size="13" font-style="normal" font-weight="normal" fill="#6b6258" text-anchor="middle">Walrus blob + SHA-256</text><path d="M 220 420 Q 222.0315072016461 444.1050883058985 220 466" fill="none" stroke="#2f9c8f" stroke-width="2.4" stroke-linecap="round" /><path d="M 220.36056241426613 466.3291289437586 Q 216.51088589384628 462.54306091289686 215.11186780964042 453.50242498080064" fill="none" stroke="#2f9c8f" stroke-width="2.4" stroke-linecap="round" opacity="1"/><path d="M 220.7633196159122 466.77386145404665 Q 214.58611223129483 461.02322552195034 213.96894599894082 453.5866636639282" fill="none" stroke="#2f9c8f" stroke-width="2.4" stroke-linecap="round" opacity="0.55"/><path d="M 220.2623731138546 466.67044581618654 Q 224.65663125293014 458.7330197606335 225.0092021492073 453.8338653100187" fill="none" stroke="#2f9c8f" stroke-width="2.4" stroke-linecap="round" opacity="1"/><path d="M 219.3910562414266 466.55221536351166 Q 224.7466724051935 457.8057769622796 226.1477618199892 454.77736325240556" fill="none" stroke="#2f9c8f" stroke-width="2.4" stroke-linecap="round" opacity="0.55"/><path d="M 320 360 Q 348.8569101508916 360.1779192386831 378 360" fill="none" stroke="#3a342e" stroke-width="2.4" stroke-linecap="round" /><path d="M 378.3725102880658 359.4563031550069 Q 373.2779031625539 360.2372896891441 365.70794624280336 366.1611568817176" fill="none" stroke="#3a342e" stroke-width="2.4" stroke-linecap="round" opacity="1"/><path d="M 377.52588477366254 360.19239368998626 Q 373.229672709879 359.645849359926 365.6860120864248 365.3515684043513" fill="none" stroke="#3a342e" stroke-width="2.4" stroke-linecap="round" opacity="0.55"/><path d="M 378.08666666666664 360.024780521262 Q 371.6999607757227 359.74059782800265 366.715929781898 354.10695011416715" fill="none" stroke="#3a342e" stroke-width="2.4" stroke-linecap="round" opacity="1"/><path d="M 377.3881893004115 359.48679698216733 Q 370.8221006934181 354.76397231359937 366.1310326625565 353.9788431182824" fill="none" stroke="#3a342e" stroke-width="2.4" stroke-linecap="round" opacity="0.55"/><rect x="382" y="303" width="196" height="116" rx="14" fill="#fbe3d6" opacity="0.9"/><path d="M 394.1273851165981 299.30481910150894 L 565.6183127572017 300.62280435528123 Q 579.8278497942387 299.8845216049383 580.2205384087791 314.5235896776406 L 579.6034413580247 405.50392061042527 Q 580.5669547325103 419.4995524691358 566.4562842935528 419.396063957476 L 393.8867181069959 419.4609627914952 Q 380.0949485596708 420.1701388888889 379.9012894375857 406.58890860768173 L 379.5348096707819 313.56059756515776 Q 380.01183127572017 299.89628086419754 394.4222205075446 300.36879029492457 Z" fill="none" stroke="#e2683c" stroke-width="2.4" stroke-linejoin="round" stroke-linecap="round" opacity="1"/><path d="M 394.4143827160494 300.2694915980796 L 565.4372033607682 300.324308127572 Q 579.7306378600823 300.5163220164609 580.192103909465 314.6543115569273 L 580.2476406035665 406.6011033950617 Q 579.6215946502058 420.3054269547325 565.3346399176954 419.78172410836765 L 394.1117815500686 419.7760468106996 Q 380.43477366255144 420.083420781893 379.70865740740743 405.5183959190672 L 379.496292866941 313.71580504115224 Q 380.17017489711935 300.2503034979424 394.3808230452675 300.33099365569274 Z" fill="none" stroke="#e2683c" stroke-width="2.4" stroke-linejoin="round" stroke-linecap="round" opacity="0.5"/><text x="480" y="337.28" font-family="'Segoe Print','Ink Free','Comic Sans MS',cursive" font-size="22" font-style="normal" font-weight="bold" fill="#2b2622" text-anchor="middle">step 0</text><text x="480" y="365" font-family="'Segoe Print','Ink Free','Comic Sans MS',cursive" font-size="18" font-style="normal" font-weight="normal" fill="#6b6258" text-anchor="middle">topic set</text><path d="M 514.8 500.0 L 510.0 512.4 L 505.1 525.1 L 493.0 531.4 L 480.0 535.2 L 467.1 531.1 L 455.8 524.2 L 449.8 512.5 L 444.6 500.0 L 449.4 487.3 L 455.4 475.4 L 466.9 468.5 L 480.0 467.6 L 493.4 467.5 L 505.3 474.7 L 511.0 487.1 L 515.3 500.0 Z" fill="#d8efe9" stroke="#2f9c8f" stroke-width="2.2" stroke-linejoin="round"/><g transform="translate(480,500) scale(0.42)">
    <rect x="-20" y="-20" width="40" height="40" rx="11" fill="#0fb3a1"/>
    <circle cx="-6" cy="-3" r="3.6" fill="#fff"/><circle cx="6" cy="-3" r="3.6" fill="#fff"/>
    <circle cx="-6" cy="-3" r="1.5" fill="#0fb3a1"/><circle cx="6" cy="-3" r="1.5" fill="#0fb3a1"/>
    <path d="M -3 5 C -2 8, 2 8, 3 5" fill="none" stroke="#fff" stroke-width="2.2" stroke-linecap="round"/>
    <path d="M -3 6 L -4 13 M 3 6 L 4 13" stroke="#fff" stroke-width="2.4" stroke-linecap="round"/>
  </g><text x="480" y="548" font-family="'Segoe Print','Ink Free','Comic Sans MS',cursive" font-size="13" font-style="normal" font-weight="normal" fill="#6b6258" text-anchor="middle">Walrus blob + SHA-256</text><path d="M 480 420 Q 479.6107467421125 443.6120541838134 480 466" fill="none" stroke="#2f9c8f" stroke-width="2.4" stroke-linecap="round" /><path d="M 479.47563100137177 465.9820576131687 Q 475.6016129171659 459.79510480864445 474.2014219934539 454.24588862963463" fill="none" stroke="#2f9c8f" stroke-width="2.4" stroke-linecap="round" opacity="1"/><path d="M 480.6907338820302 465.253950617284 Q 480.00770345214534 461.64317065226584 474.878253269174 455.0535841028857" fill="none" stroke="#2f9c8f" stroke-width="2.4" stroke-linecap="round" opacity="0.55"/><path d="M 479.2243552812071 466.46658436213994 Q 480.764642226867 457.7430883477391 484.8938180614158 454.2464647613219" fill="none" stroke="#2f9c8f" stroke-width="2.4" stroke-linecap="round" opacity="1"/><path d="M 480.40982853223596 465.35329218106995 Q 481.49665868777237 463.02819122839753 485.3632419297286 453.95786393827666" fill="none" stroke="#2f9c8f" stroke-width="2.4" stroke-linecap="round" opacity="0.55"/><path d="M 580 360 Q 609.5971579218107 360.2224365569273 638 360" fill="none" stroke="#3a342e" stroke-width="2.4" stroke-linecap="round" /><path d="M 637.2744101508916 360.42692729766804 Q 632.0690417085074 361.41690560135265 626.2830971344358 365.23959995441993" fill="none" stroke="#3a342e" stroke-width="2.4" stroke-linecap="round" opacity="1"/><path d="M 638.0697599451303 359.5753635116598 Q 632.4257495274375 363.9563294696654 625.8883234718844 365.4497645634734" fill="none" stroke="#3a342e" stroke-width="2.4" stroke-linecap="round" opacity="0.55"/><path d="M 637.428072702332 359.2423182441701 Q 630.5898647537749 357.9374976908284 625.8342905500737 353.98045491526454" fill="none" stroke="#3a342e" stroke-width="2.4" stroke-linecap="round" opacity="1"/><path d="M 637.48268175583 359.96112482853226 Q 635.094720720853 356.8028474850671 626.654331702337 353.98321211691064" fill="none" stroke="#3a342e" stroke-width="2.4" stroke-linecap="round" opacity="0.55"/><rect x="642" y="303" width="196" height="116" rx="14" fill="#fbe3d6" opacity="0.9"/><path d="M 654.6839343278464 299.9690329218107 L 826.6710553840878 300.5819770233196 Q 839.5406944444444 300.2526131687243 840.2434456447188 313.38379115226337 L 840.537356824417 406.2516735253772 Q 840.2668364197531 420.4991255144033 825.7899939986282 420.03003086419756 L 653.6129175240055 419.44174039780523 Q 640.4485339506173 419.6678600823045 639.7902460562415 405.57441872427984 L 639.7644041495199 314.01884430727023 Q 640.4857870370371 300.558816872428 653.310868484225 299.88362139917695 Z" fill="none" stroke="#e2683c" stroke-width="2.4" stroke-linejoin="round" stroke-linecap="round" opacity="1"/><path d="M 654.0584833676269 299.64965192043894 L 825.5083616255145 299.96732853223597 Q 840.1873096707819 300.0208333333333 839.5618218449931 314.20082990397805 L 840.6147865226337 405.4252966392318 Q 840.1541923868313 420.39697530864197 826.1410862482853 419.3390449245542 L 654.1526929012346 419.492524005487 Q 639.7099639917695 420.22867283950615 639.4629432441701 406.33096364883403 L 639.9887474279835 314.63567729766805 Q 640.4546244855967 299.91592592592593 653.3940594993142 299.4432527434842 Z" fill="none" stroke="#e2683c" stroke-width="2.4" stroke-linejoin="round" stroke-linecap="round" opacity="0.5"/><text x="740" y="337.28" font-family="'Segoe Print','Ink Free','Comic Sans MS',cursive" font-size="22" font-style="normal" font-weight="bold" fill="#2b2622" text-anchor="middle">step 1</text><text x="740" y="365" font-family="'Segoe Print','Ink Free','Comic Sans MS',cursive" font-size="18" font-style="normal" font-weight="normal" fill="#6b6258" text-anchor="middle">sources</text><path d="M 775.7 500.0 L 772.8 513.6 L 765.0 525.0 L 752.8 531.0 L 740.0 535.2 L 727.1 531.3 L 716.7 523.3 L 709.6 512.6 L 706.3 500.0 L 707.2 486.4 L 715.6 475.6 L 727.6 469.9 L 740.0 465.0 L 752.8 469.2 L 762.7 477.3 L 770.5 487.4 L 775.5 500.0 Z" fill="#d8efe9" stroke="#2f9c8f" stroke-width="2.2" stroke-linejoin="round"/><g transform="translate(740,500) scale(0.42)">
    <rect x="-20" y="-20" width="40" height="40" rx="11" fill="#0fb3a1"/>
    <circle cx="-6" cy="-3" r="3.6" fill="#fff"/><circle cx="6" cy="-3" r="3.6" fill="#fff"/>
    <circle cx="-6" cy="-3" r="1.5" fill="#0fb3a1"/><circle cx="6" cy="-3" r="1.5" fill="#0fb3a1"/>
    <path d="M -3 5 C -2 8, 2 8, 3 5" fill="none" stroke="#fff" stroke-width="2.2" stroke-linecap="round"/>
    <path d="M -3 6 L -4 13 M 3 6 L 4 13" stroke="#fff" stroke-width="2.4" stroke-linecap="round"/>
  </g><text x="740" y="548" font-family="'Segoe Print','Ink Free','Comic Sans MS',cursive" font-size="13" font-style="normal" font-weight="normal" fill="#6b6258" text-anchor="middle">Walrus blob + SHA-256</text><path d="M 740 420 Q 739.889317558299 444.5992155349794 740 466" fill="none" stroke="#2f9c8f" stroke-width="2.4" stroke-linecap="round" /><path d="M 740.560658436214 466.6222290809328 Q 737.6339037264937 462.9319223669435 734.8362436669793 454.72227408916825" fill="none" stroke="#2f9c8f" stroke-width="2.4" stroke-linecap="round" opacity="1"/><path d="M 740.7806995884773 465.22498628257887 Q 735.4523399404856 460.20714870439207 734.2809761772673 454.9793522784687" fill="none" stroke="#2f9c8f" stroke-width="2.4" stroke-linecap="round" opacity="0.55"/><path d="M 739.2081481481481 466.1240397805213 Q 743.8438466164417 457.42311578258136 746.0866644262992 454.51050454184315" fill="none" stroke="#2f9c8f" stroke-width="2.4" stroke-linecap="round" opacity="1"/><path d="M 739.5763374485597 466.65272290809327 Q 740.832653200804 463.1131569348447 744.9684339736243 453.8490642126251" fill="none" stroke="#2f9c8f" stroke-width="2.4" stroke-linecap="round" opacity="0.55"/><path d="M 840 360 Q 867.2651320301783 360.049618484225 898 360" fill="none" stroke="#3a342e" stroke-width="2.4" stroke-linecap="round" /><path d="M 898.3141700960219 359.2341769547325 Q 889.0214971268888 361.80475196623604 886.9121574910888 364.92997718350085" fill="none" stroke="#3a342e" stroke-width="2.4" stroke-linecap="round" opacity="1"/><path d="M 898.7663100137174 359.7875514403292 Q 893.2201802544607 360.95652151356114 886.6482480260681 366.30804302712227" fill="none" stroke="#3a342e" stroke-width="2.4" stroke-linecap="round" opacity="0.55"/><path d="M 897.6036351165981 360.1483333333333 Q 892.3818263449957 359.37225763595876 887.0806348573439 354.22885683570354" fill="none" stroke="#3a342e" stroke-width="2.4" stroke-linecap="round" opacity="1"/><path d="M 898.5594787379972 359.2498559670782 Q 895.039768731827 357.69439755365426 885.5426513182492 355.04395971636194" fill="none" stroke="#3a342e" stroke-width="2.4" stroke-linecap="round" opacity="0.55"/><rect x="902" y="303" width="196" height="116" rx="14" fill="#fbe3d6" opacity="0.9"/><path d="M 913.6456790123457 300.3563434499314 L 1085.4462774348422 299.32227109053497 Q 1099.6050823045268 300.3240997942387 1100.3567335390946 314.2744967421125 L 1099.790048010974 406.532399691358 Q 1100.2960390946503 419.7132047325103 1086.4326028806584 420.33524262688616 L 914.5875222908094 420.64067644032923 Q 899.5092181069958 420.29119855967076 900.3399537037037 405.60524777091905 L 899.505366941015 314.11376800411523 Q 900.0446193415638 300.05808127572016 914.5454526748971 299.9511788408779 Z" fill="none" stroke="#e2683c" stroke-width="2.4" stroke-linejoin="round" stroke-linecap="round" opacity="1"/><path d="M 913.8102486282579 299.4183410493827 L 1085.8859499314128 299.3161616941015 Q 1100.0992283950618 300.3768878600823 1100.5688340192044 314.42106224279837 L 1099.3957698902607 405.95159893689987 Q 1099.5864814814815 420.11784465020577 1085.4477897805214 419.3885982510288 L 914.448182441701 419.6407398834019 Q 900.5292901234568 419.58102366255144 899.7137825788752 405.5876157407407 L 899.3098542524006 314.25025120027436 Q 899.7276543209877 300.3664248971193 914.4334790809328 300.08478137860084 Z" fill="none" stroke="#e2683c" stroke-width="2.4" stroke-linejoin="round" stroke-linecap="round" opacity="0.5"/><text x="1000" y="337.28" font-family="'Segoe Print','Ink Free','Comic Sans MS',cursive" font-size="22" font-style="normal" font-weight="bold" fill="#2b2622" text-anchor="middle">step 2</text><text x="1000" y="365" font-family="'Segoe Print','Ink Free','Comic Sans MS',cursive" font-size="18" font-style="normal" font-weight="normal" fill="#6b6258" text-anchor="middle">report</text><path d="M 1035.9 500.0 L 1029.9 512.4 L 1024.0 524.0 L 1013.6 532.9 L 1000.0 536.0 L 987.0 531.3 L 977.3 522.7 L 967.2 513.6 L 964.3 500.0 L 967.6 486.6 L 977.0 477.0 L 987.4 469.6 L 1000.0 466.0 L 1012.6 469.5 L 1025.1 474.9 L 1032.2 486.7 L 1034.5 500.0 Z" fill="#d8efe9" stroke="#2f9c8f" stroke-width="2.2" stroke-linejoin="round"/><g transform="translate(1000,500) scale(0.42)">
    <rect x="-20" y="-20" width="40" height="40" rx="11" fill="#0fb3a1"/>
    <circle cx="-6" cy="-3" r="3.6" fill="#fff"/><circle cx="6" cy="-3" r="3.6" fill="#fff"/>
    <circle cx="-6" cy="-3" r="1.5" fill="#0fb3a1"/><circle cx="6" cy="-3" r="1.5" fill="#0fb3a1"/>
    <path d="M -3 5 C -2 8, 2 8, 3 5" fill="none" stroke="#fff" stroke-width="2.2" stroke-linecap="round"/>
    <path d="M -3 6 L -4 13 M 3 6 L 4 13" stroke="#fff" stroke-width="2.4" stroke-linecap="round"/>
  </g><text x="1000" y="548" font-family="'Segoe Print','Ink Free','Comic Sans MS',cursive" font-size="13" font-style="normal" font-weight="normal" fill="#6b6258" text-anchor="middle">Walrus blob + SHA-256</text><path d="M 1000 420 Q 998.6851208847737 444.3659550754458 1000 466" fill="none" stroke="#2f9c8f" stroke-width="2.4" stroke-linecap="round" /><path d="M 999.3736694101509 466.4372976680384 Q 998.2028200502249 461.6226493902631 994.7891723363894 453.71182827298173" fill="none" stroke="#2f9c8f" stroke-width="2.4" stroke-linecap="round" opacity="1"/><path d="M 999.6356858710562 466.65240054869685 Q 996.4261945358215 462.0287399252425 993.8610653405046 454.9886595487019" fill="none" stroke="#2f9c8f" stroke-width="2.4" stroke-linecap="round" opacity="0.55"/><path d="M 1000.0606652949245 465.7860219478738 Q 1004.5115283722716 459.53112675651823 1006.1828029722526 454.29512045405164" fill="none" stroke="#2f9c8f" stroke-width="2.4" stroke-linecap="round" opacity="1"/><path d="M 999.5819410150891 465.97149519890263 Q 1000.4830510060166 462.6631432174236 1004.8695107911826 453.76454432236443" fill="none" stroke="#2f9c8f" stroke-width="2.4" stroke-linecap="round" opacity="0.55"/><path d="M 855 150 L 838 210 L 862 210 L 842 270" fill="none" stroke="#c8483a" stroke-width="5" stroke-linejoin="round" stroke-linecap="round"/><text x="848" y="132" font-family="'Segoe Print','Ink Free','Comic Sans MS',cursive" font-size="22" font-style="normal" font-weight="bold" fill="#c8483a" text-anchor="middle">CRASH</text><rect x="122" y="603" width="356" height="126" rx="14" fill="#dcefdd" opacity="0.9"/><path d="M 134.4596750685871 600.1336625514404 L 466.291240569273 600.124384430727 Q 479.4818055555556 599.7270576131688 479.5525197187929 614.4817541152263 L 479.69087534293556 715.327414266118 Q 479.8079475308642 729.5735699588478 466.03240140603566 730.6613271604938 L 133.69976937585733 729.4508144718793 Q 119.58964506172839 729.5423045267489 119.56598679698217 715.7390483539094 L 119.38458933470507 613.5612517146776 Q 120.42689814814815 600.0332613168724 134.01994255829905 599.5815843621399 Z" fill="none" stroke="#3f8f4f" stroke-width="2.4" stroke-linejoin="round" stroke-linecap="round" opacity="1"/><path d="M 134.6120018861454 600.1253926611797 L 466.37299125514403 600.2875137174211 Q 480.39508744855965 600.5619444444444 479.648673696845 614.2099039780521 L 479.6127494855967 716.6788151577504 Q 479.96197016460906 730.5380864197531 465.7612714334705 730.2814523319616 L 134.08398919753085 730.2793758573388 Q 120.31774176954733 729.9697839506173 120.01646176268862 715.4067043895748 L 119.45337705761317 613.5558624828532 Q 119.46240226337449 600.457037037037 133.480911351166 599.4523268175583 Z" fill="none" stroke="#3f8f4f" stroke-width="2.4" stroke-linejoin="round" stroke-linecap="round" opacity="0.5"/><text x="300" y="627.42" font-family="'Segoe Print','Ink Free','Comic Sans MS',cursive" font-size="22" font-style="normal" font-weight="bold" fill="#3f8f4f" text-anchor="middle">fresh process restarts</text><text x="300" y="655.14" font-family="'Segoe Print','Ink Free','Comic Sans MS',cursive" font-size="17" font-style="normal" font-weight="normal" fill="#6b6258" text-anchor="middle">reads latest checkpoint pointer,</text><text x="300" y="682.86" font-family="'Segoe Print','Ink Free','Comic Sans MS',cursive" font-size="17" font-style="normal" font-weight="normal" fill="#6b6258" text-anchor="middle">rehydrates state, continues</text><path d="M 740 580 Q 603.527070473251 623.8390775034294 470 665" fill="none" stroke="#3f8f4f" stroke-width="2.4" stroke-linecap="round" /><path d="M 470.0243278463649 664.4114128943759 Q 475.7788745665339 660.5448368369719 478.95704268587986 656.5522113968517" fill="none" stroke="#3f8f4f" stroke-width="2.4" stroke-linecap="round" opacity="1"/><path d="M 469.2048628257888 664.967256515775 Q 477.4985453484269 661.602779223803 479.2585653196247 656.2142278577571" fill="none" stroke="#3f8f4f" stroke-width="2.4" stroke-linecap="round" opacity="0.55"/><path d="M 470.6816941015089 664.9749519890261 Q 474.4569389504472 667.2839413747859 482.2301261862167 666.8263875506691" fill="none" stroke="#3f8f4f" stroke-width="2.4" stroke-linecap="round" opacity="1"/><path d="M 470.1881550068587 664.9678326474623 Q 478.191424547155 668.9344763542098 483.2131303014431 667.3476632708337" fill="none" stroke="#3f8f4f" stroke-width="2.4" stroke-linecap="round" opacity="0.55"/><rect x="468.5" y="597" width="263" height="26" rx="8" fill="#fbf8f1" stroke="#6b6258" stroke-width="1.2" opacity="0.96"/><text x="600" y="616" font-family="'Segoe Print','Ink Free','Comic Sans MS',cursive" font-size="16" font-style="normal" font-weight="normal" fill="#6b6258" text-anchor="middle">resume from last good blob</text><rect x="722" y="603" width="436" height="126" rx="14" fill="#fbf8f1" opacity="0.9"/><path d="M 733.3222110768176 600.3810751028807 L 1145.875381515775 600.4193278463649 Q 1160.0549845679013 600.4650514403293 1159.6465372085047 613.9384259259259 L 1160.195386659808 716.3871724965707 Q 1160.503348765432 729.5004526748971 1146.4245670438956 729.7939248971194 L 734.1913177297668 730.3420541838134 Q 719.6072685185185 730.2580761316873 719.322967249657 716.4142386831276 L 720.3298413923183 613.35063957476 Q 720.1667438271605 599.5379218106996 733.6084044924554 599.4660339506173 Z" fill="none" stroke="#3a342e" stroke-width="2.4" stroke-linejoin="round" stroke-linecap="round" opacity="1"/><path d="M 733.6776243141289 600.6795953360768 L 1146.212070473251 600.1633213305898 Q 1160.297896090535 600.1851234567902 1160.1013331618656 614.5955881344307 L 1160.061087962963 716.0749931412894 Q 1160.52033436214 730.283487654321 1146.6676346021948 729.5652846364883 L 734.208253600823 729.6625908779149 Q 719.5316615226337 730.2374074074074 720.4431953017832 715.4553515089164 L 719.720234053498 613.3927812071331 Q 720.1318775720165 600.4468827160493 733.8946819272977 599.3324554183813 Z" fill="none" stroke="#3a342e" stroke-width="2.4" stroke-linejoin="round" stroke-linecap="round" opacity="0.5"/><text x="940" y="624.42" font-family="'Segoe Print','Ink Free','Comic Sans MS',cursive" font-size="22" font-style="normal" font-weight="bold" fill="#2b2622" text-anchor="middle">No replay from zero.</text><text x="940" y="652.14" font-family="'Segoe Print','Ink Free','Comic Sans MS',cursive" font-size="17" font-style="normal" font-weight="normal" fill="#6b6258" text-anchor="middle">Steps -1 … 1 are already durable on</text><text x="940" y="679.86" font-family="'Segoe Print','Ink Free','Comic Sans MS',cursive" font-size="17" font-style="normal" font-weight="normal" fill="#6b6258" text-anchor="middle">Walrus, so only step 2 runs again.</text>
  <g transform="translate(1048,798) scale(0.85)">
    <circle cx="8" cy="2" r="22" fill="#0fb3a1" opacity="0.16"/>
    <path d="M -22 -6 C -17 -15, 4 -17, 15 -6 C 20 -1, 22 4, 23 8"
      fill="none" stroke="#cdbf9c" stroke-width="6.5" stroke-linecap="round"/>
    <path d="M 11 -7 C 17 -1, 21 3, 23 8" fill="none" stroke="#48ddca"
      stroke-width="1.6" stroke-linecap="round" stroke-dasharray="1.2 3.5"/>
    <circle cx="23" cy="8" r="6.4" fill="#2fd4c0"/>
    <circle cx="21.5" cy="6.5" r="1.7" fill="#fff" opacity="0.95"/>
  </g>
  <text x="1240" y="794" font-family="'Segoe Print','Ink Free','Comic Sans MS',cursive" font-size="20" font-style="normal" font-weight="bold" fill="#e2683c" text-anchor="end">TuskPoint</text>
  <text x="1240" y="814" font-family="'Segoe Print','Ink Free','Comic Sans MS',cursive" font-size="13" font-style="normal" font-weight="normal" fill="#6b6258" text-anchor="end">verifiable LangGraph checkpoints on Walrus</text>
</svg>