<svg xmlns="http://www.w3.org/2000/svg" width="1300" height="860" viewBox="0 0 1300 860">
  <defs>
    <filter id="paper"><feTurbulence type="fractalNoise" baseFrequency="0.9" numOctaves="2" result="n"/><feColorMatrix in="n" type="matrix" values="0 0 0 0 0  0 0 0 0 0  0 0 0 0 0  0 0 0 0.018 0"/></filter>
  </defs>
  <rect width="1300" height="860" fill="#fbf8f1"/>
  <rect width="1300" height="860" filter="url(#paper)"/>
  <g transform="translate(70,52) scale(1.25)">
    <circle cx="8" cy="2" r="22" fill="#0fb3a1" opacity="0.16"/>
    <path d="M -22 -6 C -17 -15, 4 -17, 15 -6 C 20 -1, 22 4, 23 8"
      fill="none" stroke="#cdbf9c" stroke-width="6.5" stroke-linecap="round"/>
    <path d="M 11 -7 C 17 -1, 21 3, 23 8" fill="none" stroke="#48ddca"
      stroke-width="1.6" stroke-linecap="round" stroke-dasharray="1.2 3.5"/>
    <circle cx="23" cy="8" r="6.4" fill="#2fd4c0"/>
    <circle cx="21.5" cy="6.5" r="1.7" fill="#fff" opacity="0.95"/>
  </g>
  <text x="108" y="64" font-family="'Segoe Print','Ink Free','Comic Sans MS',cursive" font-size="38" font-style="normal" font-weight="bold" fill="#2b2622" text-anchor="start">Git for agent runs</text>
  <text x="110" y="98" font-family="'Segoe Print','Ink Free','Comic Sans MS',cursive" font-size="21" font-style="italic" font-weight="normal" fill="#6b6258" text-anchor="start">Fork a checkpoint, roll back without deleting history, or hand a run to another agent.</text>
  <text x="120" y="175" font-family="'Segoe Print','Ink Free','Comic Sans MS',cursive" font-size="20" font-style="normal" font-weight="bold" fill="#2b2622" text-anchor="start">thread: run-43312</text><path d="M 231.2 230.0 L 227.1 241.2 L 221.9 251.9 L 211.6 258.0 L 200.0 258.7 L 188.9 256.9 L 178.6 251.4 L 172.9 241.2 L 168.5 230.0 L 173.3 218.9 L 179.3 209.3 L 189.0 203.4 L 200.0 198.7 L 211.4 202.5 L 220.9 209.1 L 226.1 219.2 L 228.9 230.0 Z" fill="#fbe3d6" stroke="#e2683c" stroke-width="2.2" stroke-linejoin="round"/><text x="200" y="235" font-family="'Segoe Print','Ink Free','Comic Sans MS',cursive" font-size="16" font-style="normal" font-weight="normal" fill="#e2683c" text-anchor="middle">c0</text><path d="M 388.3 230.0 L 386.2 240.8 L 382.4 252.4 L 371.5 257.8 L 360.0 259.5 L 348.9 256.8 L 339.4 250.6 L 332.6 241.4 L 330.7 230.0 L 331.8 218.3 L 338.5 208.5 L 348.3 201.8 L 360.0 201.4 L 371.3 202.8 L 381.8 208.2 L 386.3 219.1 L 388.4 230.0 Z" fill="#fbe3d6" stroke="#e2683c" stroke-width="2.2" stroke-linejoin="round"/><text x="360" y="235" font-family="'Segoe Print','Ink Free','Comic Sans MS',cursive" font-size="16" font-style="normal" font-weight="normal" fill="#e2683c" text-anchor="middle">c1</text><path d="M 230 230 Q 281.8977837791495 232.34353566529492 330 230" fill="none" stroke="#e2683c" stroke-width="2.4" stroke-linecap="round" /><path d="M 329.4963717421125 229.29168724279836 Q 321.9478345754483 233.26936101973396 317.81534679150025 235.09366031107288" fill="none" stroke="#e2683c" stroke-width="2.4" stroke-linecap="round" opacity="1"/><path d="M 329.6448079561043 230.6969135802469 Q 322.0872584437611 230.8507601966887 319.02551140055374 236.43468911765726" fill="none" stroke="#e2683c" stroke-width="2.4" stroke-linecap="round" opacity="0.55"/><path d="M 330.3117626886145 229.2428806584362 Q 325.7229786083701 229.8294592820493 318.26530563923683 224.8517992225348" fill="none" stroke="#e2683c" stroke-width="2.4" stroke-linecap="round" opacity="1"/><path d="M 330.4305692729767 230.2629218106996 Q 322.1883284026088 224.44789549604107 317.66806284088295 225.09653173282285" fill="none" stroke="#e2683c" stroke-width="2.4" stroke-linecap="round" opacity="0.55"/><path d="M 551.3 230.0 L 546.1 240.8 L 542.1 252.1 L 531.0 256.7 L 520.0 258.8 L 508.1 258.6 L 499.9 250.1 L 493.8 240.8 L 491.0 230.0 L 490.9 218.0 L 500.1 210.1 L 508.4 202.0 L 520.0 201.3 L 531.5 202.3 L 540.6 209.4 L 546.7 218.9 L 551.6 230.0 Z" fill="#fbe3d6" stroke="#e2683c" stroke-width="2.2" stroke-linejoin="round"/><text x="520" y="235" font-family="'Segoe Print','Ink Free','Comic Sans MS',cursive" font-size="16" font-style="normal" font-weight="normal" fill="#e2683c" text-anchor="middle">c2</text><path d="M 390 230 Q 441.0303926611797 229.73874742798353 490 230" fill="none" stroke="#e2683c" stroke-width="2.4" stroke-linecap="round" /><path d="M 489.7504938271605 229.6812002743484 Q 485.6145286769572 231.5911991541647 478.2760532386882 235.32432560599744" fill="none" stroke="#e2683c" stroke-width="2.4" stroke-linecap="round" opacity="1"/><path d="M 490.34090534979424 229.89877229080932 Q 481.3588908168749 233.9034625286503 477.91337834156883 234.88510749900155" fill="none" stroke="#e2683c" stroke-width="2.4" stroke-linecap="round" opacity="0.55"/><path d="M 490.20539094650206 230.2793072702332 Q 486.2884381419778 228.3685813670973 478.069221962968 225.07752624585441" fill="none" stroke="#e2683c" stroke-width="2.4" stroke-linecap="round" opacity="1"/><path d="M 489.8772839506173 229.75613854595335 Q 483.3365039855992 228.42899288973106 477.676917436219 224.25312295367334" fill="none" stroke="#e2683c" stroke-width="2.4" stroke-linecap="round" opacity="0.55"/><path d="M 708.3 230.0 L 706.2 240.8 L 701.0 251.0 L 691.9 258.7 L 680.0 261.3 L 668.1 258.7 L 659.8 250.2 L 653.9 240.8 L 648.3 230.0 L 652.8 218.8 L 657.7 207.7 L 668.7 202.7 L 680.0 198.4 L 690.8 203.9 L 701.0 209.0 L 707.1 218.8 L 710.6 230.0 Z" fill="#fbe3d6" stroke="#e2683c" stroke-width="2.2" stroke-linejoin="round"/><text x="680" y="235" font-family="'Segoe Print','Ink Free','Comic Sans MS',cursive" font-size="16" font-style="normal" font-weight="normal" fill="#e2683c" text-anchor="middle">c3</text><path d="M 550 230 Q 600.038258744856 231.90119170096023 650 230" fill="none" stroke="#e2683c" stroke-width="2.4" stroke-linecap="round" /><path d="M 649.2930932784636 229.79869684499315 Q 642.9190828607708 230.0496628029987 638.3116568052177 235.27309789680677" fill="none" stroke="#e2683c" stroke-width="2.4" stroke-linecap="round" opacity="1"/><path d="M 650.6514060356653 229.86565157750343 Q 642.6831980871083 231.28538296760777 638.657623883407 235.5128921354899" fill="none" stroke="#e2683c" stroke-width="2.4" stroke-linecap="round" opacity="0.55"/><path d="M 649.5060150891633 229.38445816186558 Q 642.3880540541865 226.09618081840046 638.2776650356703 224.606545450244" fill="none" stroke="#e2683c" stroke-width="2.4" stroke-linecap="round" opacity="1"/><path d="M 649.5902537722908 230.4884499314129 Q 644.1669840953386 227.9244935756021 637.7051135953411 224.10559894818638" fill="none" stroke="#e2683c" stroke-width="2.4" stroke-linecap="round" opacity="0.55"/><path d="M 360 260 Q 359.6923653978052 309.74717078189303 360 360" fill="none" stroke="#3b6ea5" stroke-width="2.4" stroke-linecap="round" /><path d="M 360.77911522633747 360.4888340192044 Q 356.52254570180236 356.1909347126225 354.12877453117676 347.75184199040285" fill="none" stroke="#3b6ea5" stroke-width="2.4" stroke-linecap="round" opacity="1"/><path d="M 359.82137860082304 359.78048010973936 Q 360.2965374713497 354.0883832722933 354.5290625970204 347.63114240192544" fill="none" stroke="#3b6ea5" stroke-width="2.4" stroke-linecap="round" opacity="0.55"/><path d="M 360.27104938271606 359.7684224965706 Q 361.8435997028615 351.9265725727048 365.69030640160787 348.3845168875222" fill="none" stroke="#3b6ea5" stroke-width="2.4" stroke-linecap="round" opacity="1"/><path d="M 359.4614609053498 359.38599451303156 Q 364.7879618427792 351.83883594719043 365.5276315044885 348.9452987805263" fill="none" stroke="#3b6ea5" stroke-width="2.4" stroke-linecap="round" opacity="0.55"/><rect x="266.5" y="285" width="187" height="26" rx="8" fill="#fbf8f1" stroke="#6b6258" stroke-width="1.2" opacity="0.96"/><text x="360" y="304" font-family="'Segoe Print','Ink Free','Comic Sans MS',cursive" font-size="16" font-style="normal" font-weight="normal" fill="#6b6258" text-anchor="middle">fork  (git branch)</text><text x="120" y="405" font-family="'Segoe Print','Ink Free','Comic Sans MS',cursive" font-size="19" font-style="normal" font-weight="bold" fill="#3b6ea5" text-anchor="start">thread: fork-alt</text><path d="M 390.7 440.0 L 388.7 451.9 L 380.5 460.5 L 372.1 469.3 L 360.0 470.5 L 348.6 467.6 L 339.1 460.9 L 332.6 451.4 L 331.4 440.0 L 333.0 428.8 L 338.7 418.7 L 348.4 412.0 L 360.0 411.3 L 371.3 412.7 L 380.6 419.4 L 387.2 428.7 L 389.6 440.0 Z" fill="#dde8f3" stroke="#3b6ea5" stroke-width="2.2" stroke-linejoin="round"/><text x="360" y="445" font-family="'Segoe Print','Ink Free','Comic Sans MS',cursive" font-size="16" font-style="normal" font-weight="normal" fill="#3b6ea5" text-anchor="middle">f0</text><path d="M 550.3 440.0 L 547.2 451.2 L 542.5 462.5 L 532.1 469.2 L 520.0 470.0 L 508.4 468.0 L 498.1 461.9 L 492.9 451.2 L 489.6 440.0 L 492.3 428.5 L 499.8 419.8 L 508.6 412.5 L 520.0 409.9 L 531.3 412.7 L 541.3 418.7 L 546.9 428.8 L 550.0 440.0 Z" fill="#dde8f3" stroke="#3b6ea5" stroke-width="2.2" stroke-linejoin="round"/><text x="520" y="445" font-family="'Segoe Print','Ink Free','Comic Sans MS',cursive" font-size="16" font-style="normal" font-weight="normal" fill="#3b6ea5" text-anchor="middle">f1</text><path d="M 390 440 Q 438.9143304183813 438.2438271604938 490 440" fill="none" stroke="#3b6ea5" stroke-width="2.4" stroke-linecap="round" /><path d="M 490.13508230452675 440.7386282578875 Q 486.57016653703954 440.3789357796791 478.2137281358075 446.4385437129933" fill="none" stroke="#3b6ea5" stroke-width="2.4" stroke-linecap="round" opacity="1"/><path d="M 490.45141975308644 440.59323731138545 Q 481.92934349177204 444.0837917467573 477.93253472016966 445.4585848652567" fill="none" stroke="#3b6ea5" stroke-width="2.4" stroke-linecap="round" opacity="0.55"/><path d="M 489.50849794238684 440.077475994513 Q 484.3403722983564 437.8081698444636 477.63652648971697 434.5769295380355" fill="none" stroke="#3b6ea5" stroke-width="2.4" stroke-linecap="round" opacity="1"/><path d="M 489.4396502057613 439.72467764060355 Q 483.13658629012593 434.9945072930232 477.8590367777828 433.745118838447" fill="none" stroke="#3b6ea5" stroke-width="2.4" stroke-linecap="round" opacity="0.55"/><path d="M 711.5 440.0 L 708.4 451.8 L 702.5 462.5 L 691.5 467.9 L 680.0 468.3 L 669.0 466.6 L 658.5 461.5 L 652.0 451.6 L 651.7 440.0 L 652.2 428.5 L 658.0 418.0 L 669.1 413.8 L 680.0 409.2 L 691.0 413.6 L 701.5 418.5 L 708.1 428.4 L 711.5 440.0 Z" fill="#dde8f3" stroke="#3b6ea5" stroke-width="2.2" stroke-linejoin="round"/><text x="680" y="445" font-family="'Segoe Print','Ink Free','Comic Sans MS',cursive" font-size="16" font-style="normal" font-weight="normal" fill="#3b6ea5" text-anchor="middle">f2</text><path d="M 550 440 Q 598.3813014403293 440.54130229766804 650 440" fill="none" stroke="#3b6ea5" stroke-width="2.4" stroke-linecap="round" /><path d="M 649.409780521262 440.3067421124829 Q 645.0549676344333 440.3139426383897 638.8406897270285 445.80830365812363" fill="none" stroke="#3b6ea5" stroke-width="2.4" stroke-linecap="round" opacity="1"/><path d="M 649.8717969821673 439.9218449931413 Q 644.07834212003 444.7200331733691 638.1125827311437 444.8851349338438" fill="none" stroke="#3b6ea5" stroke-width="2.4" stroke-linecap="round" opacity="0.55"/><path d="M 650.4967764060357 440.05546639231824 Q 647.3091240130342 434.1678680611988 637.7252164759996 433.8824919523016" fill="none" stroke="#3b6ea5" stroke-width="2.4" stroke-linecap="round" opacity="1"/><path d="M 650.2180521262003 439.64093964334705 Q 644.080646646779 434.8998845221042 638.2119242949296 434.35191582061435" fill="none" stroke="#3b6ea5" stroke-width="2.4" stroke-linecap="round" opacity="0.55"/><path d="M 869.3 230.0 L 867.6 241.4 L 860.5 250.5 L 850.8 256.1 L 840.0 260.5 L 828.9 256.8 L 818.1 251.9 L 812.8 241.3 L 808.5 230.0 L 813.7 219.1 L 820.0 210.0 L 828.2 201.5 L 840.0 200.9 L 850.9 203.6 L 860.1 209.9 L 868.6 218.1 L 871.7 230.0 Z" fill="#fbeecb" stroke="#e0a93b" stroke-width="2.2" stroke-linejoin="round"/><text x="840" y="235" font-family="'Segoe Print','Ink Free','Comic Sans MS',cursive" font-size="16" font-style="normal" font-weight="normal" fill="#e0a93b" text-anchor="middle">c4</text><path d="M 710 230 Q 759.1432827503429 227.72946673525377 810 230" fill="none" stroke="#e2683c" stroke-width="2.4" stroke-linecap="round" /><path d="M 809.9680178326474 230.471975308642 Q 801.3652831351192 235.75841451767636 798.0746472030229 235.64678788308933" fill="none" stroke="#e2683c" stroke-width="2.4" stroke-linecap="round" opacity="1"/><path d="M 810.0127503429355 230.52905349794239 Q 804.6454477441727 235.76944332426072 797.7588858861504 236.35077965263667" fill="none" stroke="#e2683c" stroke-width="2.4" stroke-linecap="round" opacity="0.55"/><path d="M 809.5093347050754 229.86020576131688 Q 807.1552419828558 226.51110537258427 797.6060875322411 224.6641860538105" fill="none" stroke="#e2683c" stroke-width="2.4" stroke-linecap="round" opacity="1"/><path d="M 810.5911042524006 230.59876543209876 Q 804.627999184502 227.82583788287235 798.1495854746279 223.7385481937282" fill="none" stroke="#e2683c" stroke-width="2.4" stroke-linecap="round" opacity="0.55"/><path d="M 360 200 Q 600 110 840 200" fill="none" stroke="#e0a93b" stroke-width="2.4" stroke-dasharray="3 7"/><rect x="425.75" y="105" width="348.5" height="26" rx="8" fill="#fbf8f1" stroke="#6b6258" stroke-width="1.2" opacity="0.96"/><text x="600" y="124" font-family="'Segoe Print','Ink Free','Comic Sans MS',cursive" font-size="16" font-style="normal" font-weight="normal" fill="#6b6258" text-anchor="middle">rollback: restore c1 as new head c4</text><text x="840" y="300" font-family="'Segoe Print','Ink Free','Comic Sans MS',cursive" font-size="15" font-style="normal" font-weight="normal" fill="#6b6258" text-anchor="middle">append-only</text><text x="840" y="320" font-family="'Segoe Print','Ink Free','Comic Sans MS',cursive" font-size="15" font-style="normal" font-weight="normal" fill="#6b6258" text-anchor="middle">nothing deleted</text><rect x="542" y="603" width="316" height="146" rx="14" fill="#fbf8f1" opacity="0.9"/><path d="M 554.3171784979423 600.5730589849109 L 846.5174682784636 600.0683076131687 Q 860.0213940329218 600.0394855967078 860.3606404320988 614.2125085733882 L 860.0380907064472 736.3775102880659 Q 860.2734619341563 749.7230349794239 845.3022505144033 749.5278840877914 L 553.5457501714677 750.5181944444445 Q 539.8477520576132 750.1954732510288 540.4086754115226 736.3858521947874 L 539.5071133401921 613.5570267489712 Q 540.3442644032922 599.4568004115226 553.9465817901234 600.4530795610425 Z" fill="none" stroke="#3a342e" stroke-width="2.4" stroke-linejoin="round" stroke-linecap="round" opacity="1"/><path d="M 554.3888468792867 599.3606738683128 L 845.7234987997257 600.3581858710562 Q 859.813688271605 600.1681995884774 859.8576174554183 614.3958024691358 L 859.6546150548697 735.4704749657064 Q 860.3287191358024 750.0702674897119 845.7800917352538 750.329079218107 L 554.6616572359396 749.9698010973937 Q 539.4993055555556 750.4945576131687 540.6229363854595 735.627170781893 L 540.4112920096022 613.5228309327846 Q 540.1254475308642 599.4410699588477 554.0528180727023 600.1567438271605 Z" fill="none" stroke="#3a342e" stroke-width="2.4" stroke-linejoin="round" stroke-linecap="round" opacity="0.5"/><text x="700" y="627.42" font-family="'Segoe Print','Ink Free','Comic Sans MS',cursive" font-size="21" font-style="normal" font-weight="bold" fill="#2b2622" text-anchor="middle">handoff descriptor</text><text x="700" y="655.14" font-family="'Cascadia Code','Consolas',monospace" font-size="17" font-style="normal" font-weight="normal" fill="#6b6258" text-anchor="middle">blob id + SHA-256</text><text x="700" y="682.86" font-family="'Segoe Print','Ink Free','Comic Sans MS',cursive" font-size="15" font-style="normal" font-weight="normal" fill="#6b6258" text-anchor="middle">(tiny, portable, no state copy)</text><path d="M 870 260 Q 827.7506644375858 428.98653978052124 790 598" fill="none" stroke="#3f8f4f" stroke-width="2.4" stroke-linecap="round" /><path d="M 789.9273182441701 597.5251028806584 Q 789.7015694307918 590.1055579581695 786.5135983951914 585.8284410192197" fill="none" stroke="#3f8f4f" stroke-width="2.4" stroke-linecap="round" opacity="1"/><path d="M 789.2461248285323 597.7451440329218 Q 789.3669192250304 594.3239941721613 786.7163555968374 585.2731735295077" fill="none" stroke="#3f8f4f" stroke-width="2.4" stroke-linecap="round" opacity="0.55"/><path d="M 790.1501165980795 597.7725925925926 Q 795.8977571065394 591.9633217151586 798.6204593433945 588.3745035126217" fill="none" stroke="#3f8f4f" stroke-width="2.4" stroke-linecap="round" opacity="1"/><path d="M 789.9726268861453 598.1407818930041 Q 794.0223661600373 595.3521282995207 797.5491424709666 587.2562730599468" fill="none" stroke="#3f8f4f" stroke-width="2.4" stroke-linecap="round" opacity="0.55"/><rect x="863.75" y="415" width="82.5" height="26" rx="8" fill="#fbf8f1" stroke="#6b6258" stroke-width="1.2" opacity="0.96"/><text x="905" y="434" font-family="'Segoe Print','Ink Free','Comic Sans MS',cursive" font-size="16" font-style="normal" font-weight="normal" fill="#6b6258" text-anchor="middle">handoff</text><rect x="962" y="603" width="286" height="146" rx="14" fill="#dcefdd" opacity="0.9"/><path d="M 973.4044058641975 600.4747925240055 L 1235.3411153978052 599.8101646090535 Q 1250.0316100823045 600.2589609053498 1250.5237937242798 614.1012791495199 L 1250.0932193072701 735.3286265432099 Q 1249.872566872428 750.5980658436214 1235.607996399177 749.8703583676269 L 973.8990269204389 750.5452366255143 Q 959.4357458847736 749.7260596707819 959.9236805555555 736.2486968449931 L 960.6252049039781 613.7266615226338 Q 960.3211471193416 600.4429423868313 974.5375128600823 600.3029612482853 Z" fill="none" stroke="#3f8f4f" stroke-width="2.4" stroke-linejoin="round" stroke-linecap="round" opacity="1"/><path d="M 973.9384199245542 600.1395679012346 L 1236.6168990054869 599.4734996570645 Q 1250.4424228395062 600.4284156378601 1249.705338648834 613.4506224279835 L 1250.535052297668 735.8172702331962 Q 1250.2796759259259 749.9193724279835 1236.3926277434841 749.5264917695473 L 974.5957981824417 750.6147445130315 Q 960.3724845679012 750.3325514403292 959.6669538751714 735.4338425925926 L 959.8658033264746 613.5325891632373 Q 959.9208487654321 599.6679526748972 973.3949837105624 599.639341563786 Z" fill="none" stroke="#3f8f4f" stroke-width="2.4" stroke-linejoin="round" stroke-linecap="round" opacity="0.5"/><text x="1105" y="613.56" font-family="'Segoe Print','Ink Free','Comic Sans MS',cursive" font-size="22" font-style="normal" font-weight="bold" fill="#3f8f4f" text-anchor="middle">Agent B adopts</text><text x="1105" y="641.28" font-family="'Segoe Print','Ink Free','Comic Sans MS',cursive" font-size="17" font-style="normal" font-weight="normal" fill="#6b6258" text-anchor="middle">re-fetches blob,</text><text x="1105" y="669" font-family="'Segoe Print','Ink Free','Comic Sans MS',cursive" font-size="17" font-style="normal" font-weight="normal" fill="#6b6258" text-anchor="middle">verifies hash, then trusts.</text><text x="1105" y="696.7199999999999" font-family="'Segoe Print','Ink Free','Comic Sans MS',cursive" font-size="16" font-style="normal" font-weight="normal" fill="#c8483a" text-anchor="middle">tampered → rejected</text><path d="M 860 675 Q 909.7561942729767 674.4195387517146 958 675" fill="none" stroke="#3f8f4f" stroke-width="2.4" stroke-linecap="round" /><path d="M 958.0495816186557 675.6967489711934 Q 954.9458592668065 675.2970153407216 945.4944825939695 681.3357590765049" fill="none" stroke="#3f8f4f" stroke-width="2.4" stroke-linecap="round" opacity="1"/><path d="M 958.7757956104252 675.0130864197531 Q 953.1297275795637 679.4561922954541 946.7490916474674 680.0545656608671" fill="none" stroke="#3f8f4f" stroke-width="2.4" stroke-linecap="round" opacity="0.55"/><path d="M 958.4205281207134 674.6701646090535 Q 954.8098921886171 672.2126691585925 946.0333303305949 669.0494535435224" fill="none" stroke="#3f8f4f" stroke-width="2.4" stroke-linecap="round" opacity="1"/><path d="M 957.5171124828532 675.201316872428 Q 949.3196864273002 673.408883150362 947.0805319766855 669.8719638315883" fill="none" stroke="#3f8f4f" stroke-width="2.4" stroke-linecap="round" opacity="0.55"/>
  <g transform="translate(1068,838) scale(0.85)">
    <circle cx="8" cy="2" r="22" fill="#0fb3a1" opacity="0.16"/>
    <path d="M -22 -6 C -17 -15, 4 -17, 15 -6 C 20 -1, 22 4, 23 8"
      fill="none" stroke="#cdbf9c" stroke-width="6.5" stroke-linecap="round"/>
    <path d="M 11 -7 C 17 -1, 21 3, 23 8" fill="none" stroke="#48ddca"
      stroke-width="1.6" stroke-linecap="round" stroke-dasharray="1.2 3.5"/>
    <circle cx="23" cy="8" r="6.4" fill="#2fd4c0"/>
    <circle cx="21.5" cy="6.5" r="1.7" fill="#fff" opacity="0.95"/>
  </g>
  <text x="1260" y="834" font-family="'Segoe Print','Ink Free','Comic Sans MS',cursive" font-size="20" font-style="normal" font-weight="bold" fill="#e2683c" text-anchor="end">TuskPoint</text>
  <text x="1260" y="854" font-family="'Segoe Print','Ink Free','Comic Sans MS',cursive" font-size="13" font-style="normal" font-weight="normal" fill="#6b6258" text-anchor="end">verifiable LangGraph checkpoints on Walrus</text>
</svg>