<svg xmlns="http://www.w3.org/2000/svg" width="1280" height="860" viewBox="0 0 1280 860">
  <defs>
    <filter id="paper"><feTurbulence type="fractalNoise" baseFrequency="0.9" numOctaves="2" result="n"/><feColorMatrix in="n" type="matrix" values="0 0 0 0 0  0 0 0 0 0  0 0 0 0 0  0 0 0 0.018 0"/></filter>
  </defs>
  <rect width="1280" height="860" fill="#fbf8f1"/>
  <rect width="1280" height="860" filter="url(#paper)"/>
  <g transform="translate(70,52) scale(1.25)">
    <circle cx="8" cy="2" r="22" fill="#0fb3a1" opacity="0.16"/>
    <path d="M -22 -6 C -17 -15, 4 -17, 15 -6 C 20 -1, 22 4, 23 8"
      fill="none" stroke="#cdbf9c" stroke-width="6.5" stroke-linecap="round"/>
    <path d="M 11 -7 C 17 -1, 21 3, 23 8" fill="none" stroke="#48ddca"
      stroke-width="1.6" stroke-linecap="round" stroke-dasharray="1.2 3.5"/>
    <circle cx="23" cy="8" r="6.4" fill="#2fd4c0"/>
    <circle cx="21.5" cy="6.5" r="1.7" fill="#fff" opacity="0.95"/>
  </g>
  <text x="108" y="64" font-family="'Segoe Print','Ink Free','Comic Sans MS',cursive" font-size="38" font-style="normal" font-weight="bold" fill="#2b2622" text-anchor="start">Cryptographically tamper-evident</text>
  <text x="110" y="98" font-family="'Segoe Print','Ink Free','Comic Sans MS',cursive" font-size="21" font-style="italic" font-weight="normal" fill="#6b6258" text-anchor="start">Each blob is SHA-256 hashed at write time; verify re-hashes and compares, byte for byte.</text>
  <text x="300" y="165" font-family="'Segoe Print','Ink Free','Comic Sans MS',cursive" font-size="24" font-style="normal" font-weight="bold" fill="#2b2622" text-anchor="middle">At write time</text><path d="M 213.6 230.0 L 212.0 243.2 L 204.4 254.4 L 193.5 262.7 L 180.0 262.3 L 167.8 259.5 L 156.5 253.5 L 147.8 243.3 L 146.5 230.0 L 149.5 217.4 L 154.7 204.7 L 167.5 199.9 L 180.0 197.6 L 192.5 199.7 L 204.9 205.1 L 210.4 217.4 L 215.6 230.0 Z" fill="#d8efe9" stroke="#2f9c8f" stroke-width="2.2" stroke-linejoin="round"/><g transform="translate(180,230) scale(0.5)">
    <rect x="-20" y="-20" width="40" height="40" rx="11" fill="#0fb3a1"/>
    <circle cx="-6" cy="-3" r="3.6" fill="#fff"/><circle cx="6" cy="-3" r="3.6" fill="#fff"/>
    <circle cx="-6" cy="-3" r="1.5" fill="#0fb3a1"/><circle cx="6" cy="-3" r="1.5" fill="#0fb3a1"/>
    <path d="M -3 5 C -2 8, 2 8, 3 5" fill="none" stroke="#fff" stroke-width="2.2" stroke-linecap="round"/>
    <path d="M -3 6 L -4 13 M 3 6 L 4 13" stroke="#fff" stroke-width="2.4" stroke-linecap="round"/>
  </g><rect x="262" y="207" width="246" height="48" rx="14" fill="#ece7df" opacity="0.9"/><path d="M 274.2086796982167 203.42572273662552 L 495.94302297668037 203.55255572702333 Q 509.5 203.7535853909465 510.40985768175585 218.18214763374485 L 510.4509910836763 242.5639188957476 Q 509.57614197530864 255.9500977366255 496.59807270233193 255.3700540123457 L 274.16821844993143 255.69565243484226 Q 260.30783950617285 256.26883230452677 259.8399914266118 242.25610853909464 L 259.5613717421125 218.21442301097395 Q 259.6950925925926 203.9097890946502 274.002280521262 204.50697788065844 Z" fill="none" stroke="#3a342e" stroke-width="2.4" stroke-linejoin="round" stroke-linecap="round" opacity="1"/><path d="M 274.49711762688617 203.78689729080932 L 496.6275514403292 204.55179612482854 Q 510.12994855967077 204.5051388888889 510.64212277091906 218.2797419410151 L 509.57564300411525 241.95143089849108 Q 509.44683127572017 255.63128086419752 496.46305384087793 255.35962362825788 L 273.75521604938274 255.96032493141288 Q 259.5526028806584 255.41297839506174 260.42657750342937 242.2932090192044 L 260.23293724279836 217.64514489026064 Q 259.6472633744856 204.25023148148148 273.59936042524004 203.34716478052127 Z" fill="none" stroke="#3a342e" stroke-width="2.4" stroke-linejoin="round" stroke-linecap="round" opacity="0.5"/><text x="385" y="228" font-family="'Cascadia Code','Consolas',monospace" font-size="17" font-style="normal" font-weight="normal" fill="#6b6258" text-anchor="middle">sha256 a9f3…2c</text><text x="385" y="248" font-family="'Segoe Print','Ink Free','Comic Sans MS',cursive" font-size="13" font-style="normal" font-weight="normal" fill="#6b6258" text-anchor="middle">stored at write</text><path d="M 214.2 330.0 L 210.0 342.4 L 204.4 354.4 L 193.2 361.9 L 180.0 363.6 L 167.2 360.8 L 156.5 353.5 L 148.8 342.9 L 145.3 330.0 L 150.2 317.7 L 155.5 305.5 L 166.2 296.7 L 180.0 296.8 L 193.0 298.5 L 204.7 305.3 L 211.1 317.1 L 213.5 330.0 Z" fill="#d8efe9" stroke="#2f9c8f" stroke-width="2.2" stroke-linejoin="round"/><g transform="translate(180,330) scale(0.5)">
    <rect x="-20" y="-20" width="40" height="40" rx="11" fill="#0fb3a1"/>
    <circle cx="-6" cy="-3" r="3.6" fill="#fff"/><circle cx="6" cy="-3" r="3.6" fill="#fff"/>
    <circle cx="-6" cy="-3" r="1.5" fill="#0fb3a1"/><circle cx="6" cy="-3" r="1.5" fill="#0fb3a1"/>
    <path d="M -3 5 C -2 8, 2 8, 3 5" fill="none" stroke="#fff" stroke-width="2.2" stroke-linecap="round"/>
    <path d="M -3 6 L -4 13 M 3 6 L 4 13" stroke="#fff" stroke-width="2.4" stroke-linecap="round"/>
  </g><rect x="262" y="307" width="246" height="48" rx="14" fill="#ece7df" opacity="0.9"/><path d="M 273.6979209533608 304.4586368312757 L 496.2770173182442 303.433926611797 Q 510.55479938271606 304.4426440329218 510.10002486282576 317.6270987654321 L 509.74146690672154 341.4795490397805 Q 509.4698302469136 355.9447119341564 495.5558324759945 356.4937088477366 L 274.28184242112485 355.5122085048011 Q 259.4404166666667 355.9690020576132 259.9320104595336 341.325133744856 L 259.5648105281207 317.99857167352536 Q 259.6665586419753 303.71551440329216 274.29522548010976 303.3880401234568 Z" fill="none" stroke="#3a342e" stroke-width="2.4" stroke-linejoin="round" stroke-linecap="round" opacity="1"/><path d="M 273.45703789437584 304.00530521262004 L 496.63963220164607 303.514957133059 Q 509.75326646090537 303.7849382716049 510.4251911865569 317.9990757887517 L 510.0997608024691 341.971073388203 Q 510.04237139917694 355.5499691358025 496.1359370713306 356.4465500685871 L 273.8580375514403 356.103115569273 Q 260.32036522633746 356.37055555555554 260.4559422153635 342.4143947187929 L 260.3811291152263 318.37775034293554 Q 259.78724794238684 304.2466975308642 274.45187328532234 304.3692764060357 Z" fill="none" stroke="#3a342e" stroke-width="2.4" stroke-linejoin="round" stroke-linecap="round" opacity="0.5"/><text x="385" y="328" font-family="'Cascadia Code','Consolas',monospace" font-size="17" font-style="normal" font-weight="normal" fill="#6b6258" text-anchor="middle">sha256 a9f3…3c</text><text x="385" y="348" font-family="'Segoe Print','Ink Free','Comic Sans MS',cursive" font-size="13" font-style="normal" font-weight="normal" fill="#6b6258" text-anchor="middle">stored at write</text><path d="M 212.1 430.0 L 211.0 442.9 L 204.1 454.1 L 192.5 460.1 L 180.0 465.7 L 167.7 459.7 L 156.0 454.0 L 147.5 443.5 L 145.0 430.0 L 148.7 417.0 L 156.1 406.1 L 167.8 400.5 L 180.0 396.0 L 192.7 399.3 L 203.4 406.6 L 209.6 417.8 L 215.1 430.0 Z" fill="#d8efe9" stroke="#2f9c8f" stroke-width="2.2" stroke-linejoin="round"/><g transform="translate(180,430) scale(0.5)">
    <rect x="-20" y="-20" width="40" height="40" rx="11" fill="#0fb3a1"/>
    <circle cx="-6" cy="-3" r="3.6" fill="#fff"/><circle cx="6" cy="-3" r="3.6" fill="#fff"/>
    <circle cx="-6" cy="-3" r="1.5" fill="#0fb3a1"/><circle cx="6" cy="-3" r="1.5" fill="#0fb3a1"/>
    <path d="M -3 5 C -2 8, 2 8, 3 5" fill="none" stroke="#fff" stroke-width="2.2" stroke-linecap="round"/>
    <path d="M -3 6 L -4 13 M 3 6 L 4 13" stroke="#fff" stroke-width="2.4" stroke-linecap="round"/>
  </g><rect x="262" y="407" width="246" height="48" rx="14" fill="#ece7df" opacity="0.9"/><path d="M 274.62281035665296 403.85497685185186 L 495.635548696845 403.93427897805213 Q 509.5068209876543 403.595591563786 509.5925068587106 418.00214248971196 L 510.6231464334705 442.1808273319616 Q 509.46074074074073 455.4032150205761 495.48257373113853 455.51412294238685 L 274.3533367626886 455.48107938957475 Q 259.6702160493827 456.1330606995885 259.3596776406036 442.2575848765432 L 260.692786351166 417.7017018175583 Q 260.53524691358024 403.78512860082304 273.6904852537723 403.8991949588477 Z" fill="none" stroke="#3a342e" stroke-width="2.4" stroke-linejoin="round" stroke-linecap="round" opacity="1"/><path d="M 273.3081618655693 403.90936128257886 L 496.0651388888889 403.9526551783265 Q 509.60713991769546 404.2619598765432 509.46612997256517 418.57072445130314 L 509.80397119341563 441.83191958161865 Q 509.4684670781893 456.4658796296296 496.2333573388203 455.3524579903978 L 274.3076183127572 455.8537765775034 Q 259.71868312757204 455.7253549382716 260.67651063100135 441.5212285665295 L 260.64274691358025 418.48489283264746 Q 259.5577880658436 403.64038580246915 273.862256515775 404.1437028463649 Z" fill="none" stroke="#3a342e" stroke-width="2.4" stroke-linejoin="round" stroke-linecap="round" opacity="0.5"/><text x="385" y="428" font-family="'Cascadia Code','Consolas',monospace" font-size="17" font-style="normal" font-weight="normal" fill="#6b6258" text-anchor="middle">sha256 a9f3…4c</text><text x="385" y="448" font-family="'Segoe Print','Ink Free','Comic Sans MS',cursive" font-size="13" font-style="normal" font-weight="normal" fill="#6b6258" text-anchor="middle">stored at write</text><path d="M 213.6 530.0 L 209.8 542.3 L 205.4 555.4 L 192.2 559.6 L 180.0 563.0 L 166.7 562.2 L 156.2 553.8 L 149.0 542.8 L 147.4 530.0 L 150.4 517.7 L 154.9 504.9 L 166.5 497.5 L 180.0 496.9 L 192.5 499.9 L 202.6 507.4 L 211.8 516.8 L 214.4 530.0 Z" fill="#d8efe9" stroke="#2f9c8f" stroke-width="2.2" stroke-linejoin="round"/><g transform="translate(180,530) scale(0.5)">
    <rect x="-20" y="-20" width="40" height="40" rx="11" fill="#0fb3a1"/>
    <circle cx="-6" cy="-3" r="3.6" fill="#fff"/><circle cx="6" cy="-3" r="3.6" fill="#fff"/>
    <circle cx="-6" cy="-3" r="1.5" fill="#0fb3a1"/><circle cx="6" cy="-3" r="1.5" fill="#0fb3a1"/>
    <path d="M -3 5 C -2 8, 2 8, 3 5" fill="none" stroke="#fff" stroke-width="2.2" stroke-linecap="round"/>
    <path d="M -3 6 L -4 13 M 3 6 L 4 13" stroke="#fff" stroke-width="2.4" stroke-linecap="round"/>
  </g><rect x="262" y="507" width="246" height="48" rx="14" fill="#ece7df" opacity="0.9"/><path d="M 273.60001457475994 503.83140946502056 L 496.23528377914954 504.4702794924554 Q 509.4560648148148 504.31242798353907 509.7039703360768 517.323945473251 L 509.71269633058984 542.6844204389574 Q 510.24887345679014 556.2256069958847 495.7949631344307 556.047962962963 L 273.79936814128945 556.4189317558299 Q 260.497237654321 556.2610082304527 260.33965963648836 541.6701286008231 L 259.56196587791493 518.1404801097393 Q 259.4011574074074 503.6186316872428 274.4047265089163 504.0571090534979 Z" fill="none" stroke="#3a342e" stroke-width="2.4" stroke-linejoin="round" stroke-linecap="round" opacity="1"/><path d="M 273.4671562071331 504.31573216735256 L 495.72073816872427 503.88155692729765 Q 510.39156893004116 504.2362037037037 509.98160579561045 518.0113545953361 L 509.5049408436214 542.3506361454047 Q 509.6251183127572 555.479012345679 496.17198131001373 555.6940140603566 L 274.520625 556.0289746227709 Q 259.6475565843621 556.5773765432099 260.5049494170096 541.8303772290809 L 260.43445730452675 517.383239026063 Q 259.658883744856 504.3312962962963 274.0471767832648 503.48711076817557 Z" fill="none" stroke="#3a342e" stroke-width="2.4" stroke-linejoin="round" stroke-linecap="round" opacity="0.5"/><text x="385" y="528" font-family="'Cascadia Code','Consolas',monospace" font-size="17" font-style="normal" font-weight="normal" fill="#6b6258" text-anchor="middle">sha256 a9f3…5c</text><text x="385" y="548" font-family="'Segoe Print','Ink Free','Comic Sans MS',cursive" font-size="13" font-style="normal" font-weight="normal" fill="#6b6258" text-anchor="middle">stored at write</text><path d="M 540 380 Q 618.9753729423868 381.0003429355281 700 380" fill="none" stroke="#e2683c" stroke-width="3" stroke-linecap="round" /><path d="M 700.760377229081 380.6067215363512 Q 694.462292737314 384.64472453139376 688.5493111262053 386.0959374029796" fill="none" stroke="#e2683c" stroke-width="3" stroke-linecap="round" opacity="1"/><path d="M 700.0298010973937 380.7181207133059 Q 694.4041857414292 381.7915558071139 687.8730559821724 385.84684275277385" fill="none" stroke="#e2683c" stroke-width="3" stroke-linecap="round" opacity="0.55"/><path d="M 699.9955212620027 380.28137174211247 Q 694.2868194862851 378.91346476901776 688.0708749122136 374.45160717863905" fill="none" stroke="#e2683c" stroke-width="3" stroke-linecap="round" opacity="1"/><path d="M 699.5908710562414 379.8298079561043 Q 696.2435273052153 376.6528886373305 688.0761012496622 375.0617717876926" fill="none" stroke="#e2683c" stroke-width="3" stroke-linecap="round" opacity="0.55"/><rect x="460" y="345" width="320" height="26" rx="8" fill="#fbf8f1" stroke="#6b6258" stroke-width="1.2" opacity="0.96"/><text x="620" y="364" font-family="'Segoe Print','Ink Free','Comic Sans MS',cursive" font-size="16" font-style="normal" font-weight="normal" fill="#6b6258" text-anchor="middle">verify_trail: re-fetch + re-hash</text><text x="940" y="165" font-family="'Segoe Print','Ink Free','Comic Sans MS',cursive" font-size="24" font-style="normal" font-weight="bold" fill="#2b2622" text-anchor="middle">At verify time</text><rect x="742" y="203" width="416" height="56" rx="14" fill="#dcefdd" opacity="0.9"/><path d="M 754.4069950274348 200.15659979423867 L 1145.4305358367626 199.90966735253772 Q 1160.0959104938272 199.51708847736626 1160.3424322702333 214.2583950617284 L 1159.8283187585735 245.4886231138546 Q 1159.8109413580246 259.81915637860084 1145.3315732167353 260.65833847736627 L 753.90202760631 260.4546159122085 Q 740.5815277777778 259.4434465020576 740.6410845336077 246.42309670781893 L 740.1183290466392 214.4743124142661 Q 740.4076697530865 199.98995884773663 754.5376328875171 200.01933641975307 Z" fill="none" stroke="#3f8f4f" stroke-width="2.4" stroke-linejoin="round" stroke-linecap="round" opacity="1"/><path d="M 753.5438897462277 200.0143792866941 L 1145.6375951646091 199.3684756515775 Q 1159.561044238683 199.92604938271606 1160.0453763717421 213.54148319615913 L 1160.0310570987654 245.35792524005487 Q 1159.4501491769547 260.49108024691355 1146.689455589849 259.52229080932784 L 753.32266718107 260.4233007544582 Q 740.5281430041152 259.71166666666664 740.5427940672154 246.42346879286694 L 739.3790920781893 214.23126886145405 Q 739.5950257201646 200.3878086419753 754.0720584705075 199.91168381344306 Z" fill="none" stroke="#3f8f4f" stroke-width="2.4" stroke-linejoin="round" stroke-linecap="round" opacity="0.5"/><text x="770" y="236" font-family="'Segoe Print','Ink Free','Comic Sans MS',cursive" font-size="17" font-style="normal" font-weight="normal" fill="#6b6258" text-anchor="start">recompute → </text><text x="975" y="236" font-family="'Segoe Print','Ink Free','Comic Sans MS',cursive" font-size="19" font-style="normal" font-weight="bold" fill="#3f8f4f" text-anchor="start">matches ✓</text><rect x="1080" y="212" width="64" height="36" rx="9" fill="#3f8f4f"/><text x="1112" y="236" font-family="'Segoe Print','Ink Free','Comic Sans MS',cursive" font-size="17" font-style="normal" font-weight="bold" fill="#fff" text-anchor="middle">PASS</text><rect x="742" y="303" width="416" height="56" rx="14" fill="#dcefdd" opacity="0.9"/><path d="M 754.6669984567901 300.6484962277092 L 1145.3592635459534 300.60609053497944 Q 1159.7804989711933 299.87451646090534 1159.453052983539 313.34164951989027 L 1160.578034122085 346.5912191358025 Q 1160.021455761317 359.413621399177 1146.403922325103 359.57739540466395 L 753.4505084019204 359.47449588477366 Q 739.9846347736626 360.1416152263374 739.7862731481481 346.4224005486968 L 740.6433530521261 314.52258744855965 Q 740.0700360082304 300.05849794238685 753.4667721193416 299.5433316186557 Z" fill="none" stroke="#3f8f4f" stroke-width="2.4" stroke-linejoin="round" stroke-linecap="round" opacity="1"/><path d="M 754.423234739369 300.00216049382715 L 1145.3906027091907 299.4916478052126 Q 1159.9246450617284 300.17730452674897 1160.6568201303155 313.7798816872428 L 1159.7754226680383 346.30208504801095 Q 1160.161898148148 360.06826131687245 1146.4107758916323 360.32241769547323 L 754.3028352194788 360.166225994513 Q 739.4547067901235 359.6814403292181 740.1517686899863 346.6964351851852 L 740.0395070301784 313.55073731138543 Q 739.4030709876544 299.416841563786 754.3464651920439 299.9686008230453 Z" fill="none" stroke="#3f8f4f" stroke-width="2.4" stroke-linejoin="round" stroke-linecap="round" opacity="0.5"/><text x="770" y="336" font-family="'Segoe Print','Ink Free','Comic Sans MS',cursive" font-size="17" font-style="normal" font-weight="normal" fill="#6b6258" text-anchor="start">recompute → </text><text x="975" y="336" font-family="'Segoe Print','Ink Free','Comic Sans MS',cursive" font-size="19" font-style="normal" font-weight="bold" fill="#3f8f4f" text-anchor="start">matches ✓</text><rect x="1080" y="312" width="64" height="36" rx="9" fill="#3f8f4f"/><text x="1112" y="336" font-family="'Segoe Print','Ink Free','Comic Sans MS',cursive" font-size="17" font-style="normal" font-weight="bold" fill="#fff" text-anchor="middle">PASS</text><rect x="742" y="403" width="416" height="56" rx="14" fill="#f7dcd7" opacity="0.9"/><path d="M 753.4521047668038 400.32228566529494 L 1146.4748225308642 399.62020919067214 Q 1160.0527417695473 400.0047839506173 1160.407295096022 414.1475377229081 L 1160.5442103909465 445.5966958161866 Q 1159.7974022633746 459.892037037037 1146.5717446844992 459.49316015089164 L 753.9784130658436 459.71577503429353 Q 739.9309516460905 460.03484567901234 740.4121201989026 446.2258196159122 L 740.6440972222222 414.4441135116598 Q 739.6533899176954 399.6332098765432 754.3950883058985 400.0121827846365 Z" fill="none" stroke="#c8483a" stroke-width="2.4" stroke-linejoin="round" stroke-linecap="round" opacity="1"/><path d="M 754.207929526749 399.448377914952 L 1146.658836591221 400.33498456790124 Q 1159.6462705761317 399.41621399176955 1160.5365766460905 413.99523491083676 L 1159.3757553155008 445.9960390946502 Q 1159.876116255144 460.01087448559673 1146.6967052469136 459.7513511659808 L 754.4130444101509 460.421908436214 Q 740.2281841563786 459.7944238683128 739.7549819958848 446.58339334705073 L 740.0373705418382 414.67925925925925 Q 739.9024742798354 400.3668621399177 753.5780735596708 400.1580281207133 Z" fill="none" stroke="#c8483a" stroke-width="2.4" stroke-linejoin="round" stroke-linecap="round" opacity="0.5"/><text x="770" y="436" font-family="'Segoe Print','Ink Free','Comic Sans MS',cursive" font-size="17" font-style="normal" font-weight="normal" fill="#6b6258" text-anchor="start">recompute → </text><text x="975" y="436" font-family="'Segoe Print','Ink Free','Comic Sans MS',cursive" font-size="19" font-style="normal" font-weight="bold" fill="#c8483a" text-anchor="start">differs ✗</text><rect x="1080" y="412" width="64" height="36" rx="9" fill="#c8483a"/><text x="1112" y="436" font-family="'Segoe Print','Ink Free','Comic Sans MS',cursive" font-size="17" font-style="normal" font-weight="bold" fill="#fff" text-anchor="middle">FAIL</text><rect x="742" y="503" width="416" height="56" rx="14" fill="#dcefdd" opacity="0.9"/><path d="M 754.1154003772291 499.8347582304527 L 1146.5821510631001 499.68288751714675 Q 1160.5422685185185 500.29307613168726 1159.7138005829904 513.7550720164609 L 1160.0206747256516 545.3914729080933 Q 1160.5017438271605 560.1729218106996 1146.6992378257887 559.5068672839507 L 754.0684576474623 560.0204286694102 Q 739.916774691358 560.1749897119341 739.3383787722908 545.5568106995885 L 739.7921664951989 514.6364214677641 Q 740.3873611111111 499.49927983539095 754.2978900891633 500.3715689300412 Z" fill="none" stroke="#3f8f4f" stroke-width="2.4" stroke-linejoin="round" stroke-linecap="round" opacity="1"/><path d="M 753.6584679355282 500.3061179698217 L 1145.8990869341565 499.70342421124826 Q 1159.8666615226336 499.67240740740743 1160.1340286351167 513.4961848422497 L 1160.1110673868313 546.1336145404664 Q 1159.8668775720164 560.4818827160494 1146.285515260631 560.0732887517147 L 754.1545293209876 559.7730641289438 Q 739.4559825102881 559.546913580247 740.579594478738 545.7040963648834 L 740.4961394032922 514.4884396433471 Q 740.2339763374486 499.6675 754.0829329561043 500.2552743484225 Z" fill="none" stroke="#3f8f4f" stroke-width="2.4" stroke-linejoin="round" stroke-linecap="round" opacity="0.5"/><text x="770" y="536" font-family="'Segoe Print','Ink Free','Comic Sans MS',cursive" font-size="17" font-style="normal" font-weight="normal" fill="#6b6258" text-anchor="start">recompute → </text><text x="975" y="536" font-family="'Segoe Print','Ink Free','Comic Sans MS',cursive" font-size="19" font-style="normal" font-weight="bold" fill="#3f8f4f" text-anchor="start">matches ✓</text><rect x="1080" y="512" width="64" height="36" rx="9" fill="#3f8f4f"/><text x="1112" y="536" font-family="'Segoe Print','Ink Free','Comic Sans MS',cursive" font-size="17" font-style="normal" font-weight="bold" fill="#fff" text-anchor="middle">PASS</text><rect x="182" y="643" width="916" height="126" rx="14" fill="#fbf8f1" opacity="0.9"/><path d="M 194.20256430041152 639.9464077503429 L 1086.2343355624143 640.05091563786 Q 1100.5675977366254 639.480133744856 1099.7404706790123 654.013635116598 L 1099.716069101509 755.8545627572016 Q 1099.9863323045267 770.3303497942387 1085.5765252057613 769.7567884087791 L 194.58483967764062 769.4896913580247 Q 179.9272890946502 769.5694547325103 180.1773945473251 755.6425342935528 L 180.507313957476 653.4229681069959 Q 179.59046810699587 639.9974485596708 194.60974537037038 640.1375394375857 Z" fill="none" stroke="#3a342e" stroke-width="2.4" stroke-linejoin="round" stroke-linecap="round" opacity="1"/><path d="M 193.95015860768174 640.1210596707818 L 1086.6718475651578 639.5500531550068 Q 1099.9487808641975 640.2644032921811 1099.3800402949246 654.6506327160494 L 1099.6307415980796 756.0234533607681 Q 1100.0304783950617 770.5331378600823 1086.663625685871 770.078353909465 L 193.6655615569273 770.4838906035666 Q 179.96773148148148 770.1240946502057 180.06758144718793 756.2708899176955 L 179.84297410836763 653.9980315500686 Q 180.1605401234568 639.4372736625514 193.45857424554183 640.2949074074074 Z" fill="none" stroke="#3a342e" stroke-width="2.4" stroke-linejoin="round" stroke-linecap="round" opacity="0.5"/><text x="640" y="671.28" font-family="'Segoe Print','Ink Free','Comic Sans MS',cursive" font-size="23" font-style="normal" font-weight="bold" fill="#2b2622" text-anchor="middle">A swapped or corrupted blob is a FAIL, not just a failed download.</text><text x="640" y="699" font-family="'Segoe Print','Ink Free','Comic Sans MS',cursive" font-size="17" font-style="normal" font-weight="normal" fill="#6b6258" text-anchor="middle">ok = (at least one PASS) AND (zero FAIL).  No stored hash → UNVERIFIED, never a silent pass.</text>
  <g transform="translate(1048,838) scale(0.85)">
    <circle cx="8" cy="2" r="22" fill="#0fb3a1" opacity="0.16"/>
    <path d="M -22 -6 C -17 -15, 4 -17, 15 -6 C 20 -1, 22 4, 23 8"
      fill="none" stroke="#cdbf9c" stroke-width="6.5" stroke-linecap="round"/>
    <path d="M 11 -7 C 17 -1, 21 3, 23 8" fill="none" stroke="#48ddca"
      stroke-width="1.6" stroke-linecap="round" stroke-dasharray="1.2 3.5"/>
    <circle cx="23" cy="8" r="6.4" fill="#2fd4c0"/>
    <circle cx="21.5" cy="6.5" r="1.7" fill="#fff" opacity="0.95"/>
  </g>
  <text x="1240" y="834" font-family="'Segoe Print','Ink Free','Comic Sans MS',cursive" font-size="20" font-style="normal" font-weight="bold" fill="#e2683c" text-anchor="end">TuskPoint</text>
  <text x="1240" y="854" font-family="'Segoe Print','Ink Free','Comic Sans MS',cursive" font-size="13" font-style="normal" font-weight="normal" fill="#6b6258" text-anchor="end">verifiable LangGraph checkpoints on Walrus</text>
</svg>