<svg xmlns="http://www.w3.org/2000/svg" width="1680" height="1180" viewBox="0 0 1680 1180">
  <defs>
    <filter id="paper"><feTurbulence type="fractalNoise" baseFrequency="0.9" numOctaves="2" result="n"/><feColorMatrix in="n" type="matrix" values="0 0 0 0 0  0 0 0 0 0  0 0 0 0 0  0 0 0 0.018 0"/></filter>
  </defs>
  <rect width="1680" height="1180" fill="#fbf8f1"/>
  <rect width="1680" height="1180" filter="url(#paper)"/>
  
  <text x="60" y="64" font-family="'Segoe Print','Ink Free','Comic Sans MS',cursive" font-size="38" font-style="normal" font-weight="bold" fill="#2b2622" text-anchor="start">TuskPoint at a glance</text>
  <text x="62" y="98" font-family="'Segoe Print','Ink Free','Comic Sans MS',cursive" font-size="21" font-style="italic" font-weight="normal" fill="#6b6258" text-anchor="start">Verifiable, durable, version-controlled memory for AI agents on Walrus.</text>
  <rect x="72" y="183" width="246" height="116" rx="14" fill="#ece7df" opacity="0.9"/><path d="M 84.62964591906722 180.43254286694102 L 305.77705504115227 180.08478737997257 Q 319.4028034979424 180.52891975308643 319.6922436556927 193.45409122085047 L 320.5982947530864 286.03534807956106 Q 320.05857510288064 300.26061728395064 306.2974339849108 300.3293432784636 L 84.31768261316873 299.6618347050754 Q 69.50323559670782 299.84787037037034 70.1118835733882 285.3249657064472 L 69.40188528806584 193.43091392318243 Q 70.53678497942387 179.69067901234567 83.6022590877915 179.70762517146775 Z" fill="none" stroke="#3a342e" stroke-width="2.4" stroke-linejoin="round" stroke-linecap="round" opacity="1"/><path d="M 83.71756944444445 179.8092524005487 L 305.9524271262003 180.22055041152262 Q 320.5444804526749 180.46627572016462 320.3314017489712 193.86351680384087 L 320.6656421467764 286.63345679012343 Q 319.552103909465 299.57204732510286 306.3100488683128 300.06037379972565 L 84.43256087105624 299.9445113168724 Q 69.48194958847736 299.86670781893 70.1201774691358 285.46649005486967 L 69.71984996570644 194.0203806584362 Q 69.53401748971193 180.5502572016461 84.22845421810699 179.94853223593964 Z" fill="none" stroke="#3a342e" stroke-width="2.4" stroke-linejoin="round" stroke-linecap="round" opacity="0.5"/><text x="195" y="223.27999999999997" font-family="'Segoe Print','Ink Free','Comic Sans MS',cursive" font-size="22" font-style="normal" font-weight="bold" fill="#2b2622" text-anchor="middle">LangGraph agent</text><text x="195" y="251" font-family="'Segoe Print','Ink Free','Comic Sans MS',cursive" font-size="15" font-style="normal" font-weight="normal" fill="#6b6258" text-anchor="middle">state · writes · metadata</text><rect x="402" y="168" width="296" height="146" rx="14" fill="#fbe3d6" opacity="0.9"/><path d="M 414.3941760973937 164.9277314814815 L 686.1263588820302 164.55981138545954 Q 699.7441820987655 165.49128600823045 700.1222059327846 179.1332304526749 L 700.4722899519891 300.8646930727023 Q 700.3481018518519 315.3489094650206 685.370606138546 314.70354423868315 L 413.56081361454045 315.62327846364883 Q 400.00757716049384 314.92875514403295 400.0060433813443 301.50533950617285 L 400.6585965363512 178.50223422496572 Q 400.32260802469136 164.63082304526748 413.6951843278464 165.2052829218107 Z" fill="none" stroke="#e2683c" stroke-width="2.4" stroke-linejoin="round" stroke-linecap="round" opacity="1"/><path d="M 414.0323053840878 164.7682270233196 L 686.5753935185185 164.83096536351167 Q 700.2611676954732 165.57432098765432 699.548606824417 179.48792352537723 L 699.6725591563786 300.76856310013716 Q 699.5724948559671 314.62824074074075 685.6741675240055 314.3279903978052 L 413.5345396090535 314.84875342935527 Q 400.4727109053498 315.13771604938273 399.47565414951987 300.5550943072702 L 400.6280015432099 179.53820301783264 Q 399.7618158436214 165.10274691358023 413.41973336762686 165.23590192043895 Z" fill="none" stroke="#e2683c" stroke-width="2.4" stroke-linejoin="round" stroke-linecap="round" opacity="0.5"/><text x="550" y="197.42000000000002" font-family="'Segoe Print','Ink Free','Comic Sans MS',cursive" font-size="26" font-style="normal" font-weight="bold" fill="#e2683c" text-anchor="middle">TuskPoint</text><text x="550" y="225.14" font-family="'Segoe Print','Ink Free','Comic Sans MS',cursive" font-size="16" font-style="normal" font-weight="normal" fill="#6b6258" text-anchor="middle">WalrusSaver — drop-in</text><text x="550" y="252.86" font-family="'Segoe Print','Ink Free','Comic Sans MS',cursive" font-size="15" font-style="normal" font-weight="normal" fill="#6b6258" text-anchor="middle">serialize → gzip → SHA-256</text><rect x="782" y="153" width="316" height="196" rx="14" fill="#d8efe9" opacity="0.9"/><path d="M 794.6196116255144 149.50357853223593 L 1086.2797779492455 149.91055555555556 Q 1099.9769187242798 150.37463991769548 1099.9760365226336 164.01154663923182 L 1099.8911411179697 335.9993878600823 Q 1100.173431069959 350.5359670781893 1086.5639429012347 349.72877400548697 L 794.4228746570644 349.4530349794239 Q 780.4921656378601 349.886183127572 780.0499974279835 336.521927297668 L 779.5416452331962 164.13816358024692 Q 780.1331224279835 150.02528806584363 794.3008667695473 150.0576731824417 Z" fill="none" stroke="#2f9c8f" stroke-width="2.4" stroke-linejoin="round" stroke-linecap="round" opacity="1"/><path d="M 794.5141195130316 149.7214403292181 L 1085.412351680384 150.17882887517146 Q 1100.3284722222222 150.1737242798354 1099.6069641632373 164.06953189300413 L 1100.2119864540466 335.3818587105624 Q 1099.4546141975309 350.0202366255144 1086.0868458504801 350.2491049382716 L 794.2208804869684 349.5052589163237 Q 780.436311728395 349.98897119341564 779.6204312414266 335.32682613168726 L 779.9057004458161 163.61569615912208 Q 780.0735648148149 150.47992798353908 794.0743870027435 150.5693621399177 Z" fill="none" stroke="#2f9c8f" stroke-width="2.4" stroke-linejoin="round" stroke-linecap="round" opacity="0.5"/><text x="940" y="188" font-family="'Segoe Print','Ink Free','Comic Sans MS',cursive" font-size="25" font-style="normal" font-weight="bold" fill="#2f9c8f" text-anchor="middle">Walrus</text><text x="940" y="211" font-family="'Segoe Print','Ink Free','Comic Sans MS',cursive" font-size="13" font-style="normal" font-weight="normal" fill="#6b6258" text-anchor="middle">decentralized blobs</text><path d="M 866.5 268.0 L 865.6 276.5 L 860.5 283.5 L 853.0 287.3 L 845.0 291.0 L 836.4 288.7 L 829.2 283.8 L 824.2 276.6 L 821.9 268.0 L 825.0 259.7 L 829.4 252.4 L 836.4 247.3 L 845.0 245.5 L 853.7 247.1 L 860.1 252.9 L 864.3 260.0 L 867.8 268.0 Z" fill="#eafaf6" stroke="#2f9c8f" stroke-width="2.2" stroke-linejoin="round"/><path d="M 934.2 274.0 L 934.3 282.0 L 928.5 287.5 L 922.9 293.2 L 915.0 294.1 L 907.7 291.6 L 900.7 288.3 L 896.5 281.7 L 895.8 274.0 L 895.6 266.0 L 901.5 260.5 L 907.2 255.1 L 915.0 254.7 L 923.0 254.7 L 928.6 260.4 L 934.3 266.0 L 934.2 274.0 Z" fill="#eafaf6" stroke="#2f9c8f" stroke-width="2.2" stroke-linejoin="round"/><path d="M 1008.2 268.0 L 1005.0 276.3 L 1000.3 283.3 L 993.4 288.4 L 985.0 288.9 L 976.1 289.4 L 969.9 283.1 L 964.9 276.3 L 963.5 268.0 L 964.6 259.6 L 968.9 251.9 L 976.2 246.8 L 985.0 245.2 L 993.6 247.3 L 1001.5 251.5 L 1005.4 259.6 L 1006.8 268.0 Z" fill="#eafaf6" stroke="#2f9c8f" stroke-width="2.2" stroke-linejoin="round"/><text x="940" y="312" font-family="'Segoe Print','Ink Free','Comic Sans MS',cursive" font-size="13" font-style="normal" font-weight="normal" fill="#6b6258" text-anchor="middle">erasure-coded across nodes,</text><text x="940" y="334" font-family="'Segoe Print','Ink Free','Comic Sans MS',cursive" font-size="13" font-style="normal" font-weight="normal" fill="#6b6258" text-anchor="middle">availability anchored on Sui</text><rect x="402" y="363" width="296" height="86" rx="14" fill="#fbeecb" opacity="0.9"/><path d="M 413.53162894375856 359.376655521262 L 685.9688528806585 360.39649262688613 Q 700.4060905349794 359.7016512345679 699.6636711248285 373.7009816529492 L 699.5262037037037 435.31649777091906 Q 700.3785288065843 450.15001543209877 685.9383058984911 450.4790114883402 L 413.3817026748971 449.31242884087794 Q 400.33985596707817 450.4539351851852 399.4221999314129 435.3774116941015 L 400.00201646090534 373.45095250342933 Q 399.4900720164609 359.8134104938272 413.98201989026063 359.6628489368999 Z" fill="none" stroke="#e0a93b" stroke-width="2.4" stroke-linejoin="round" stroke-linecap="round" opacity="1"/><path d="M 414.45381172839507 360.19873542524005 L 685.3340397805213 359.79984825102883 Q 700.5866563786009 360.34456275720163 699.803755144033 374.6224442729767 L 700.6500325788752 435.64886574074075 Q 700.5109465020577 450.5670010288066 685.9185133744855 449.7887457133059 L 413.61972908093276 449.79603137860084 Q 400.1574588477366 449.5783281893004 399.86475308641974 435.5643064128944 L 399.50979595336076 373.30801183127573 Q 399.92619341563784 360.1785442386831 414.10914094650207 360.41579303840876 Z" fill="none" stroke="#e0a93b" stroke-width="2.4" stroke-linejoin="round" stroke-linecap="round" opacity="0.5"/><text x="550" y="389.28" font-family="'Segoe Print','Ink Free','Comic Sans MS',cursive" font-size="19" font-style="normal" font-weight="bold" fill="#2b2622" text-anchor="middle">local cache</text><text x="550" y="417" font-family="'Segoe Print','Ink Free','Comic Sans MS',cursive" font-size="14" font-style="normal" font-weight="normal" fill="#6b6258" text-anchor="middle">ONLY a blob pointer — no state on disk</text><path d="M 320 240 Q 356.8103566529492 240.18383487654322 398 240" fill="none" stroke="#e2683c" stroke-width="2.4" stroke-linecap="round" /><path d="M 397.6781069958848 240.01128257887518 Q 393.3052282654346 244.78807158214823 385.97156764198036 245.30379062657357" fill="none" stroke="#e2683c" stroke-width="2.4" stroke-linecap="round" opacity="1"/><path d="M 398.6388888888889 240.2436694101509 Q 393.3755163312782 245.73737199367088 385.8014853374536 245.7682762232814" fill="none" stroke="#e2683c" stroke-width="2.4" stroke-linecap="round" opacity="0.55"/><path d="M 398.34041152263376 240.10568587105624 Q 394.0976562489737 236.7061945358216 385.61658821811204 234.7310653405046" fill="none" stroke="#e2683c" stroke-width="2.4" stroke-linecap="round" opacity="1"/><path d="M 397.31600823045267 240.13066529492454 Q 391.2049813518543 237.5369764288257 385.950209617289 233.7436990853606" fill="none" stroke="#e2683c" stroke-width="2.4" stroke-linecap="round" opacity="0.55"/><rect x="304.5" y="209" width="111" height="26" rx="8" fill="#fbf8f1" stroke="#6b6258" stroke-width="1.2" opacity="0.96"/><text x="360" y="228" font-family="'Segoe Print','Ink Free','Comic Sans MS',cursive" font-size="16" font-style="normal" font-weight="normal" fill="#6b6258" text-anchor="middle">checkpoint</text><path d="M 700 235 Q 739.846664951989 235.88732424554183 778 235" fill="none" stroke="#2f9c8f" stroke-width="2.4" stroke-linecap="round" /><path d="M 777.4414951989027 234.28495884773662 Q 770.9431432174238 234.83504003207966 765.6345443223645 240.04989487897413" fill="none" stroke="#2f9c8f" stroke-width="2.4" stroke-linecap="round" opacity="1"/><path d="M 777.2121536351166 235.57907407407407 Q 773.838122641292 236.23866143125662 767.0002644869735 240.2131459077807" fill="none" stroke="#2f9c8f" stroke-width="2.4" stroke-linecap="round" opacity="0.55"/><path d="M 777.5013305898491 235.61393004115226 Q 773.8293983614567 232.6395827388394 766.3956142812123 229.05247823488048" fill="none" stroke="#2f9c8f" stroke-width="2.4" stroke-linecap="round" opacity="1"/><path d="M 777.2423593964335 234.92286008230454 Q 773.0503037112509 231.0802411750534 765.9539270384139 229.71943296739076" fill="none" stroke="#2f9c8f" stroke-width="2.4" stroke-linecap="round" opacity="0.55"/><rect x="708.25" y="204" width="63.5" height="26" rx="8" fill="#fbf8f1" stroke="#6b6258" stroke-width="1.2" opacity="0.96"/><text x="740" y="223" font-family="'Segoe Print','Ink Free','Comic Sans MS',cursive" font-size="16" font-style="normal" font-weight="normal" fill="#6b6258" text-anchor="middle">store</text><path d="M 550 315 Q 551.1617798353909 338.27085476680384 550 358" fill="none" stroke="#e0a93b" stroke-width="2.4" stroke-linecap="round" /><path d="M 549.9143484224966 358.4927914951989 Q 549.4470175810891 354.70388395816434 544.1372587561425 346.2636183964385" fill="none" stroke="#e0a93b" stroke-width="2.4" stroke-linecap="round" opacity="1"/><path d="M 549.7985871056242 358.59678326474625 Q 544.0259476222413 352.532196715366 544.9647073158133 346.36267189438087" fill="none" stroke="#e0a93b" stroke-width="2.4" stroke-linecap="round" opacity="0.55"/><path d="M 549.8457887517146 357.61929355281205 Q 554.866837014247 353.8568057688639 555.8420005031168 346.0913550219529" fill="none" stroke="#e0a93b" stroke-width="2.4" stroke-linecap="round" opacity="1"/><path d="M 550.5892866941015 357.69365569272975 Q 553.5939152035475 354.41104445199153 556.2842638776024 345.9830011124879" fill="none" stroke="#e0a93b" stroke-width="2.4" stroke-linecap="round" opacity="0.55"/><path d="M 1230 175 L 1213 225 L 1237 225 L 1217 280" fill="none" stroke="#c8483a" stroke-width="5" stroke-linejoin="round" stroke-linecap="round"/><text x="1222" y="160" font-family="'Segoe Print','Ink Free','Comic Sans MS',cursive" font-size="19" font-style="normal" font-weight="bold" fill="#c8483a" text-anchor="middle">CRASH</text><rect x="1172" y="303" width="426" height="126" rx="14" fill="#dcefdd" opacity="0.9"/><path d="M 1184.3429543895747 299.51462705761315 L 1585.4421124828532 299.7840526406036 Q 1599.459537037037 300.207566872428 1600.0385768175584 314.69882973251026 L 1599.9111917009602 416.2898602537723 Q 1599.9023456790123 430.37074588477367 1585.721236282579 430.3145138888889 L 1183.5895301783264 430.3160382373114 Q 1169.8007098765431 429.45614711934155 1169.8575994513033 416.22834619341563 L 1170.3437945816186 314.3292532578875 Q 1169.5546296296295 300.26377057613166 1183.5143329903979 299.5069933127572 Z" fill="none" stroke="#3f8f4f" stroke-width="2.4" stroke-linejoin="round" stroke-linecap="round" opacity="1"/><path d="M 1183.8406515775034 299.39617198216735 L 1585.491455761317 299.52588563100136 Q 1600.4783744855968 300.0146759259259 1599.9467678326475 313.3834610768176 L 1600.2673251028807 416.286631515775 Q 1600.5619238683128 429.50748456790126 1585.7288100137175 429.3577872085048 L 1183.474675925926 430.25663665980795 Q 1170.2343621399177 429.6558487654321 1169.65344478738 415.78581704389575 L 1170.3801748971193 313.9025677297668 Q 1169.8956893004115 299.6597685185185 1184.1873388203019 299.7342172496571 Z" fill="none" stroke="#3f8f4f" stroke-width="2.4" stroke-linejoin="round" stroke-linecap="round" opacity="0.5"/><text x="1385" y="324.41999999999996" font-family="'Segoe Print','Ink Free','Comic Sans MS',cursive" font-size="20" font-style="normal" font-weight="bold" fill="#3f8f4f" text-anchor="middle">crash · evict · migrate</text><text x="1385" y="352.14" font-family="'Segoe Print','Ink Free','Comic Sans MS',cursive" font-size="15" font-style="normal" font-weight="normal" fill="#6b6258" text-anchor="middle">a fresh process rehydrates from the</text><text x="1385" y="379.85999999999996" font-family="'Segoe Print','Ink Free','Comic Sans MS',cursive" font-size="15" font-style="normal" font-weight="normal" fill="#6b6258" text-anchor="middle">last verified checkpoint, not from zero</text><path d="M 1110 250 Q 1141.3231738683128 293.89675497256513 1168 340" fill="none" stroke="#3f8f4f" stroke-width="2.4" stroke-linecap="round" /><path d="M 1168.4538957475995 339.6224622770919 Q 1162.164441832938 336.1810561825536 1156.1656463544907 333.32508218678066" fill="none" stroke="#3f8f4f" stroke-width="2.4" stroke-linecap="round" opacity="1"/><path d="M 1167.2566529492456 340.06719478737995 Q 1160.2396681703867 334.6612207916071 1156.622724543791 333.40932086990824" fill="none" stroke="#3f8f4f" stroke-width="2.4" stroke-linecap="round" opacity="0.55"/><path d="M 1168.355706447188 339.9637791495199 Q 1169.408687828669 335.7079367008969 1165.8599819673518 327.53036585721213" fill="none" stroke="#3f8f4f" stroke-width="2.4" stroke-linecap="round" opacity="1"/><path d="M 1167.48438957476 339.845548696845 Q 1169.4987289809324 334.78069390254296 1166.9985416381337 326.87386379959895" fill="none" stroke="#3f8f4f" stroke-width="2.4" stroke-linecap="round" opacity="0.55"/><rect x="1103.5" y="280" width="73" height="26" rx="8" fill="#fbf8f1" stroke="#6b6258" stroke-width="1.2" opacity="0.96"/><text x="1140" y="299" font-family="'Segoe Print','Ink Free','Comic Sans MS',cursive" font-size="16" font-style="normal" font-weight="normal" fill="#6b6258" text-anchor="middle">resume</text><path d="M 60.37603566529492 480.2458367626886 Q 840.1901783264747 477.40106995884776 1620.4658436213992 480.3496364883402" fill="none" stroke="#6b6258" stroke-width="1.4" stroke-linecap="round" opacity="1"/><path d="M 60.3639780521262 480.0979766803841 Q 838.0283676268862 479.1997530864198 1619.619218106996 479.4857270233196" fill="none" stroke="#6b6258" stroke-width="1.4" stroke-linecap="round" opacity="0.55"/><text x="70" y="540" font-family="'Segoe Print','Ink Free','Comic Sans MS',cursive" font-size="22" font-style="normal" font-weight="bold" fill="#e2683c" text-anchor="start">Git for agent memory</text><path d="M 145.0 600.0 L 145.1 610.4 L 138.4 618.4 L 129.9 623.9 L 120.0 626.4 L 110.6 622.8 L 100.9 619.1 L 94.8 610.4 L 94.5 600.0 L 95.5 589.8 L 102.3 582.3 L 109.8 575.3 L 120.0 574.1 L 130.3 575.0 L 138.7 581.3 L 144.2 590.0 L 145.3 600.0 Z" fill="#fbe3d6" stroke="#e2683c" stroke-width="2.2" stroke-linejoin="round"/><text x="120" y="605" font-family="'Segoe Print','Ink Free','Comic Sans MS',cursive" font-size="14" font-style="normal" font-weight="normal" fill="#e2683c" text-anchor="middle">c0</text><path d="M 276.0 600.0 L 273.8 609.8 L 269.4 619.4 L 260.2 624.6 L 250.0 625.8 L 240.3 623.4 L 231.2 618.8 L 227.3 609.4 L 223.6 600.0 L 224.9 589.6 L 231.3 581.3 L 240.1 576.0 L 250.0 573.5 L 260.1 575.6 L 267.7 582.3 L 274.0 590.1 L 275.9 600.0 Z" fill="#fbe3d6" stroke="#e2683c" stroke-width="2.2" stroke-linejoin="round"/><text x="250" y="605" font-family="'Segoe Print','Ink Free','Comic Sans MS',cursive" font-size="14" font-style="normal" font-weight="normal" fill="#e2683c" text-anchor="middle">c1</text><path d="M 146 600 Q 183.63027263374485 601.2223722565158 224 600" fill="none" stroke="#e2683c" stroke-width="2.4" stroke-linecap="round" /><path d="M 224.57587105624143 599.7148079561042 Q 218.58352730521517 605.8474405807765 212.8611012496621 605.2558756745846" fill="none" stroke="#e2683c" stroke-width="2.4" stroke-linecap="round" opacity="1"/><path d="M 223.73418381344308 599.9817626886146 Q 215.94764253155262 601.4831607453856 212.60706832785144 605.6956699132677" fill="none" stroke="#e2683c" stroke-width="2.4" stroke-linecap="round" opacity="0.55"/><path d="M 223.58879286694102 599.7005692729767 Q 219.6524984986308 597.0939585961783 211.6271094801148 594.9893232280218" fill="none" stroke="#e2683c" stroke-width="2.4" stroke-linecap="round" opacity="1"/><path d="M 224.6730315500686 599.404561042524 Q 219.03142853978306 599.7222713533799 212.05455803978558 594.6883767259642" fill="none" stroke="#e2683c" stroke-width="2.4" stroke-linecap="round" opacity="0.55"/><path d="M 405.1 600.0 L 405.0 610.4 L 398.8 618.8 L 389.7 623.3 L 380.0 627.0 L 370.3 623.4 L 361.1 618.9 L 355.4 610.2 L 352.7 600.0 L 357.2 590.6 L 360.8 580.8 L 369.5 574.6 L 380.0 573.6 L 390.2 575.3 L 399.3 580.7 L 405.0 589.6 L 406.8 600.0 Z" fill="#fbe3d6" stroke="#e2683c" stroke-width="2.2" stroke-linejoin="round"/><text x="380" y="605" font-family="'Segoe Print','Ink Free','Comic Sans MS',cursive" font-size="14" font-style="normal" font-weight="normal" fill="#e2683c" text-anchor="middle">c2</text><path d="M 276 600 Q 312.97250085733884 598.287079903978 354 600" fill="none" stroke="#e2683c" stroke-width="2.4" stroke-linecap="round" /><path d="M 354.73904663923184 600.6109053497943 Q 347.10618848491333 605.9190729538903 343.06295996022453 605.9437426155996" fill="none" stroke="#e2683c" stroke-width="2.4" stroke-linecap="round" opacity="1"/><path d="M 354.3689643347051 600.075390946502 Q 350.14931605692976 602.8486202789933 343.0434949396484 605.6995862369988" fill="none" stroke="#e2683c" stroke-width="2.4" stroke-linecap="round" opacity="0.55"/><path d="M 353.9840672153635 599.3472839506173 Q 348.1554065919092 599.0421341791687 342.12032621536855 593.5981778233579" fill="none" stroke="#e2683c" stroke-width="2.4" stroke-linecap="round" opacity="1"/><path d="M 354.11768861454044 600.5599176954732 Q 349.65779342318496 595.1420518746419 342.42678712071836 594.3910584817941" fill="none" stroke="#e2683c" stroke-width="2.4" stroke-linecap="round" opacity="0.55"/><path d="M 537.1 600.0 L 532.6 609.4 L 528.0 618.0 L 519.5 623.0 L 510.0 627.2 L 500.2 623.6 L 492.3 617.7 L 485.7 610.1 L 485.4 600.0 L 486.4 590.2 L 491.4 581.4 L 499.7 575.0 L 510.0 575.4 L 519.7 576.6 L 527.5 582.5 L 534.7 589.8 L 534.8 600.0 Z" fill="#fbe3d6" stroke="#e2683c" stroke-width="2.2" stroke-linejoin="round"/><text x="510" y="605" font-family="'Segoe Print','Ink Free','Comic Sans MS',cursive" font-size="14" font-style="normal" font-weight="normal" fill="#e2683c" text-anchor="middle">c3</text><path d="M 406 600 Q 443.96467764060355 601.5233410493827 484 600" fill="none" stroke="#e2683c" stroke-width="2.4" stroke-linecap="round" /><path d="M 484.2845267489712 600.3214060356653 Q 477.7012776481506 604.8433802241235 471.6298392469186 606.0879881574377" fill="none" stroke="#e2683c" stroke-width="2.4" stroke-linecap="round" opacity="1"/><path d="M 484.00086419753086 600.3760150891633 Q 477.06045460288317 602.9482361912018 472.34864583128075 605.3080293097012" fill="none" stroke="#e2683c" stroke-width="2.4" stroke-linecap="round" opacity="0.55"/><path d="M 484.05794238683126 600.0602537722908 Q 477.07148340946753 597.472614288908 473.05263760082806 594.6263739824799" fill="none" stroke="#e2683c" stroke-width="2.4" stroke-linecap="round" opacity="1"/><path d="M 483.3890946502058 599.9074554183813 Q 479.8676974012371 595.4589517374677 472.67514788889395 593.9945632828915" fill="none" stroke="#e2683c" stroke-width="2.4" stroke-linecap="round" opacity="0.55"/><path d="M 250 574 Q 315 530 380 574" fill="none" stroke="#2b2622" stroke-width="2" stroke-dasharray="3 5"/><rect x="288" y="515" width="54" height="26" rx="8" fill="#fbf8f1" stroke="#6b6258" stroke-width="1.2" opacity="0.96"/><text x="315" y="534" font-family="'Segoe Print','Ink Free','Comic Sans MS',cursive" font-size="16" font-style="normal" font-weight="normal" fill="#6b6258" text-anchor="middle">diff</text><path d="M 250 626 Q 252.3713563100137 675.0416452331962 250 720" fill="none" stroke="#3b6ea5" stroke-width="2.4" stroke-linecap="round" /><path d="M 249.45532235939643 719.891378600823 Q 247.6833413122276 715.9509072777804 243.99592816629337 708.9478022098816" fill="none" stroke="#3b6ea5" stroke-width="2.4" stroke-linecap="round" opacity="1"/><path d="M 250.11486968449933 719.9410493827161 Q 245.60054295831816 716.6434175658462 243.58387055312465 708.3999421275771" fill="none" stroke="#3b6ea5" stroke-width="2.4" stroke-linecap="round" opacity="0.55"/><path d="M 249.6929355281207 720.3314609053498 Q 252.668592844151 711.5877797057639 255.71054645647754 707.8372672304578" fill="none" stroke="#3b6ea5" stroke-width="2.4" stroke-linecap="round" opacity="1"/><path d="M 250.32285322359397 719.9959465020576 Q 253.31172041616745 715.7173270308668 255.0910814359014 707.7931108518569" fill="none" stroke="#3b6ea5" stroke-width="2.4" stroke-linecap="round" opacity="0.55"/><rect x="180.25" y="663" width="139.5" height="26" rx="8" fill="#fbf8f1" stroke="#6b6258" stroke-width="1.2" opacity="0.96"/><text x="250" y="682" font-family="'Segoe Print','Ink Free','Comic Sans MS',cursive" font-size="16" font-style="normal" font-weight="normal" fill="#6b6258" text-anchor="middle">fork (branch)</text><path d="M 273.0 750.0 L 269.5 758.1 L 264.8 764.8 L 258.1 769.5 L 250.0 771.2 L 241.3 771.1 L 234.0 766.0 L 229.2 758.6 L 227.2 750.0 L 230.8 742.0 L 235.4 735.4 L 241.6 729.8 L 250.0 728.0 L 258.5 729.4 L 264.9 735.1 L 270.3 741.6 L 273.1 750.0 Z" fill="#dde8f3" stroke="#3b6ea5" stroke-width="2.2" stroke-linejoin="round"/><text x="250" y="755" font-family="'Segoe Print','Ink Free','Comic Sans MS',cursive" font-size="13" font-style="normal" font-weight="normal" fill="#3b6ea5" text-anchor="middle">f0</text><path d="M 401.7 750.0 L 400.2 758.4 L 395.3 765.3 L 388.4 770.4 L 380.0 772.8 L 371.8 769.8 L 363.5 766.5 L 358.6 758.9 L 358.9 750.0 L 360.4 741.9 L 364.8 734.8 L 371.7 729.9 L 380.0 727.8 L 388.2 730.1 L 395.4 734.6 L 400.4 741.5 L 401.7 750.0 Z" fill="#dde8f3" stroke="#3b6ea5" stroke-width="2.2" stroke-linejoin="round"/><text x="380" y="755" font-family="'Segoe Print','Ink Free','Comic Sans MS',cursive" font-size="13" font-style="normal" font-weight="normal" fill="#3b6ea5" text-anchor="middle">f1</text><path d="M 272 750 Q 315.6519633058985 749.967313957476 358 750" fill="none" stroke="#3b6ea5" stroke-width="2.4" stroke-linecap="round" /><path d="M 358.58412894375857 749.7214197530864 Q 354.7630609128969 752.4895256287874 345.9574249808006 754.9628989942005" fill="none" stroke="#3b6ea5" stroke-width="2.4" stroke-linecap="round" opacity="1"/><path d="M 358.02886145404665 749.9784979423869 Q 349.24322552195036 753.3005544353719 346.6416636639282 755.8668907637477" fill="none" stroke="#3b6ea5" stroke-width="2.4" stroke-linecap="round" opacity="0.55"/><path d="M 358.52544581618656 749.5096502057613 Q 349.3530197606335 744.8422164836954 345.88886531001873 744.3802971649217" fill="none" stroke="#3b6ea5" stroke-width="2.4" stroke-linecap="round" opacity="1"/><path d="M 357.4072153635117 750.4482098765432 Q 350.8257769622796 746.9569489939835 345.83236325240557 743.6546593048394" fill="none" stroke="#3b6ea5" stroke-width="2.4" stroke-linecap="round" opacity="0.55"/><path d="M 530.9 750.0 L 531.3 758.8 L 526.0 766.0 L 518.5 770.5 L 510.0 773.2 L 501.5 770.6 L 494.0 766.0 L 489.0 758.7 L 489.2 750.0 L 488.6 741.2 L 493.9 733.9 L 501.6 729.8 L 510.0 727.7 L 518.3 729.9 L 525.2 734.8 L 529.5 741.9 L 530.8 750.0 Z" fill="#dde8f3" stroke="#3b6ea5" stroke-width="2.2" stroke-linejoin="round"/><text x="510" y="755" font-family="'Segoe Print','Ink Free','Comic Sans MS',cursive" font-size="13" font-style="normal" font-weight="normal" fill="#3b6ea5" text-anchor="middle">f2</text><path d="M 402 750 Q 447.42731910150894 747.5515689300412 488 750" fill="none" stroke="#3b6ea5" stroke-width="2.4" stroke-linecap="round" /><path d="M 488.1431893004115 749.3417969821674 Q 479.8421006934181 755.4385242570454 476.28603266255647 755.3429470051744" fill="none" stroke="#3b6ea5" stroke-width="2.4" stroke-linecap="round" opacity="1"/><path d="M 488.1187860082305 749.5667764060356 Q 480.9494257962988 750.6693061500495 476.01965406173343 756.1555807500304" fill="none" stroke="#3b6ea5" stroke-width="2.4" stroke-linecap="round" opacity="0.55"/><path d="M 487.9017901234568 750.4880521262003 Q 480.57526941769794 746.5862768403483 476.80512731276224 744.9331846820684" fill="none" stroke="#3b6ea5" stroke-width="2.4" stroke-linecap="round" opacity="1"/><path d="M 488.02553497942387 749.4389574759945 Q 480.852964890949 750.2318735481673 475.97578574897625 744.8272999084058" fill="none" stroke="#3b6ea5" stroke-width="2.4" stroke-linecap="round" opacity="0.55"/><path d="M 666.9 600.0 L 663.2 609.6 L 657.6 617.6 L 650.1 624.3 L 640.0 624.8 L 629.5 625.3 L 622.7 617.3 L 616.2 609.9 L 613.6 600.0 L 616.0 590.1 L 621.5 581.5 L 629.9 575.6 L 640.0 574.4 L 650.5 574.6 L 658.1 581.9 L 662.9 590.5 L 664.5 600.0 Z" fill="#fbeecb" stroke="#e0a93b" stroke-width="2.2" stroke-linejoin="round"/><text x="640" y="605" font-family="'Segoe Print','Ink Free','Comic Sans MS',cursive" font-size="14" font-style="normal" font-weight="normal" fill="#e0a93b" text-anchor="middle">c4</text><path d="M 536 600 Q 573.5686728395061 598.282686042524 614 600" fill="none" stroke="#e2683c" stroke-width="2.4" stroke-linecap="round" /><path d="M 614.6055418381344 600.4827503429356 Q 605.996037593281 603.6056298811881 603.0932411673576 605.9892501601812" fill="none" stroke="#e2683c" stroke-width="2.4" stroke-linecap="round" opacity="1"/><path d="M 613.3045953360768 599.5793347050754 Q 607.2120046714704 604.5154241198711 602.0243934307321 605.4364518062717" fill="none" stroke="#e2683c" stroke-width="2.4" stroke-linecap="round" opacity="0.55"/><path d="M 613.2332784636488 600.2611042524005 Q 610.5020458237337 594.7336293780712 602.362953101514 594.2708458617666" fill="none" stroke="#e2683c" stroke-width="2.4" stroke-linecap="round" opacity="1"/><path d="M 613.3249245541838 599.8613923182442 Q 605.1994943834045 594.1026828760137 603.0422535130366 594.0439734337831" fill="none" stroke="#e2683c" stroke-width="2.4" stroke-linecap="round" opacity="0.55"/><path d="M 250 574 Q 445 490 640 574" fill="none" stroke="#e0a93b" stroke-width="2.2" stroke-dasharray="3 7"/><rect x="228" y="475" width="434" height="26" rx="8" fill="#fbf8f1" stroke="#6b6258" stroke-width="1.2" opacity="0.96"/><text x="445" y="494" font-family="'Segoe Print','Ink Free','Comic Sans MS',cursive" font-size="16" font-style="normal" font-weight="normal" fill="#6b6258" text-anchor="middle">rollback: re-write earlier state as new head</text><text x="640" y="660" font-family="'Segoe Print','Ink Free','Comic Sans MS',cursive" font-size="13" font-style="normal" font-weight="normal" fill="#6b6258" text-anchor="middle">append-only · nothing deleted</text><rect x="822" y="563" width="326" height="126" rx="14" fill="#fbf8f1" opacity="0.9"/><path d="M 833.5823165294925 560.4218904320987 L 1136.0987585733883 560.4493407064472 Q 1150.5260802469136 559.7259619341564 1150.2631241426611 574.4135005144033 L 1150.4641340877915 675.6070001714678 Q 1150.3466666666666 690.2002520576132 1136.4643021262002 689.7699254115226 L 833.5721021947874 690.618363340192 Q 820.4228086419753 690.3967644032922 820.6525171467764 676.3578317901234 L 820.6893295610425 573.7500968792867 Q 819.9545061728395 559.5154989711934 833.8944358710562 559.8438863168724 Z" fill="none" stroke="#3a342e" stroke-width="2.4" stroke-linejoin="round" stroke-linecap="round" opacity="1"/><path d="M 834.0824828532236 560.2688674554183 L 1136.6320524691357 560.4158650548696 Q 1150.048621399177 560.0812191358025 1149.6182287379972 573.8413417352538 L 1150.215329218107 675.6729072359396 Q 1150.1766152263374 690.1518055555556 1135.7632338820301 690.3341863854596 L 834.563420781893 690.4725420096022 Q 819.4934979423869 690.4779475308642 819.584164951989 675.4140680727023 L 819.3429938271605 574.481436042524 Q 819.5992695473251 560.2596450617284 833.5476886145404 560.3476534636488 Z" fill="none" stroke="#3a342e" stroke-width="2.4" stroke-linejoin="round" stroke-linecap="round" opacity="0.5"/><text x="985" y="584.42" font-family="'Segoe Print','Ink Free','Comic Sans MS',cursive" font-size="19" font-style="normal" font-weight="bold" fill="#2b2622" text-anchor="middle">handoff_checkpoint</text><text x="985" y="612.14" font-family="'Cascadia Code','Consolas',monospace" font-size="14" font-style="normal" font-weight="normal" fill="#6b6258" text-anchor="middle">tiny descriptor: blob id + SHA-256</text><text x="985" y="639.86" font-family="'Segoe Print','Ink Free','Comic Sans MS',cursive" font-size="13" font-style="normal" font-weight="normal" fill="#6b6258" text-anchor="middle">(portable, no state copy)</text><rect x="1232" y="563" width="366" height="126" rx="14" fill="#dcefdd" opacity="0.9"/><path d="M 1243.8207150205762 560.1662560013717 L 1585.6429183813443 559.8797145061728 Q 1600.1032613168725 559.4870936213991 1599.6632510288066 573.9936685528121 L 1600.2070593278463 675.7546579218107 Q 1600.316440329218 689.8650874485596 1585.3372685185186 690.4303403635116 L 1244.2915706447188 690.3944161522634 Q 1229.451841563786 689.4319701646091 1229.3094341563785 676.5429381001371 L 1230.3631189986284 573.4656558641975 Q 1230.3094650205762 559.7877417695473 1244.0464146090535 559.3981284293553 Z" fill="none" stroke="#3f8f4f" stroke-width="2.4" stroke-linejoin="round" stroke-linecap="round" opacity="1"/><path d="M 1243.4883710562415 560.2350437242799 L 1585.6375291495199 560.1544693072702 Q 1600.527037037037 560.225066872428 1599.533993484225 574.369246399177 L 1600.4566083676268 675.610276920439 Q 1600.0698456790124 689.4882458847736 1585.5666529492455 690.3349305555555 L 1244.4849468449931 689.986454903978 Q 1230.268209876543 690.0736471193416 1230.0530161179697 676.5987628600823 L 1230.1892112482853 574.3496699245542 Q 1230.3221296296297 559.9812705761317 1244.0597496570645 560.2274099794239 Z" fill="none" stroke="#3f8f4f" stroke-width="2.4" stroke-linejoin="round" stroke-linecap="round" opacity="0.5"/><text x="1415" y="565.56" font-family="'Segoe Print','Ink Free','Comic Sans MS',cursive" font-size="19" font-style="normal" font-weight="bold" fill="#3f8f4f" text-anchor="middle">adopt_checkpoint</text><text x="1415" y="593.28" font-family="'Segoe Print','Ink Free','Comic Sans MS',cursive" font-size="14" font-style="normal" font-weight="normal" fill="#6b6258" text-anchor="middle">re-fetch blob, re-verify SHA-256,</text><text x="1415" y="621" font-family="'Segoe Print','Ink Free','Comic Sans MS',cursive" font-size="14" font-style="normal" font-weight="normal" fill="#6b6258" text-anchor="middle">adopt as a new thread</text><text x="1415" y="648.7199999999999" font-family="'Segoe Print','Ink Free','Comic Sans MS',cursive" font-size="13" font-style="normal" font-weight="normal" fill="#c8483a" text-anchor="middle">tampered → rejected before it is state</text><path d="M 666 600 Q 742.1288151577503 606.66638803155 818 615" fill="none" stroke="#3f8f4f" stroke-width="2.4" stroke-linecap="round" /><path d="M 818.0611659807956 614.642901234568 Q 808.8662877277494 615.1647649056011 806.3579526845796 619.5963405107907" fill="none" stroke="#3f8f4f" stroke-width="2.4" stroke-linecap="round" opacity="1"/><path d="M 818.5725651577503 614.366646090535 Q 814.0131190034696 620.2424603788522 806.5088580343738 619.9669989470046" fill="none" stroke="#3f8f4f" stroke-width="2.4" stroke-linecap="round" opacity="0.55"/><path d="M 818.5358161865569 614.9644650205761 Q 812.544897454312 609.6781232429607 806.3333614381166 608.001740313082" fill="none" stroke="#3f8f4f" stroke-width="2.4" stroke-linecap="round" opacity="1"/><path d="M 818.4842524005487 615.3696913580247 Q 811.8843213226248 609.6595224199154 807.3435260471701 608.3427691196664" fill="none" stroke="#3f8f4f" stroke-width="2.4" stroke-linecap="round" opacity="0.55"/><path d="M 1150 625 Q 1190.7710905349795 623.9696716392318 1228 625" fill="none" stroke="#3f8f4f" stroke-width="2.4" stroke-linecap="round" /><path d="M 1227.4772290809328 625.4457956104252 Q 1219.5519223669435 625.8899097165789 1215.7772740891683 631.1794559214982" fill="none" stroke="#3f8f4f" stroke-width="2.4" stroke-linecap="round" opacity="1"/><path d="M 1228.2799862825789 624.6905281207133 Q 1219.227148704392 625.9700743256325 1216.6343522784687 630.0636946046257" fill="none" stroke="#3f8f4f" stroke-width="2.4" stroke-linecap="round" opacity="0.55"/><path d="M 1228.1790397805212 624.9871124828533 Q 1225.2431157825813 619.6253166208696 1216.765504541843 619.4017923638243" fill="none" stroke="#3f8f4f" stroke-width="2.4" stroke-linecap="round" opacity="1"/><path d="M 1227.7077229080933 625.2688820301784 Q 1220.5331569348446 620.2980738225157 1216.704064212625 619.1452903062111" fill="none" stroke="#3f8f4f" stroke-width="2.4" stroke-linecap="round" opacity="0.55"/><rect x="1125" y="594" width="130" height="26" rx="8" fill="#fbf8f1" stroke="#6b6258" stroke-width="1.2" opacity="0.96"/><text x="1190" y="613" font-family="'Segoe Print','Ink Free','Comic Sans MS',cursive" font-size="16" font-style="normal" font-weight="normal" fill="#6b6258" text-anchor="middle">no shared FS</text><path d="M 59.399368998628255 739.4691700960219 Q 837.8835116598079 742.2944032921811 1620.6891769547326 740.7729698216735" fill="none" stroke="#6b6258" stroke-width="1.4" stroke-linecap="round" opacity="1"/><path d="M 59.78731138545953 739.7213100137175 Q 837.3217009602195 739.2930864197531 1620.2425514403292 740.3090603566529" fill="none" stroke="#6b6258" stroke-width="1.4" stroke-linecap="round" opacity="0.55"/><text x="70" y="800" font-family="'Segoe Print','Ink Free','Comic Sans MS',cursive" font-size="22" font-style="normal" font-weight="bold" fill="#e2683c" text-anchor="start">Tamper-evident audit</text><rect x="72" y="821" width="426" height="42" rx="14" fill="#dcefdd" opacity="0.9"/><path d="M 83.74492969821674 817.4869727366255 L 485.8292729766804 817.9638057270233 Q 499.7025 818.4060853909465 499.5961076817558 831.8933976337448 L 499.9872410836763 850.6251688957476 Q 499.4786419753086 864.3025977366256 485.43432270233194 864.1313040123457 L 83.35446844993142 863.4069024348422 Q 69.91033950617285 864.3213323045268 69.7262414266118 850.6673585390946 L 69.79762174211248 831.5756730109739 Q 70.1975925925926 817.6622890946502 83.538530521262 818.5682278806585 Z" fill="none" stroke="#3f8f4f" stroke-width="2.4" stroke-linejoin="round" stroke-linecap="round" opacity="1"/><path d="M 84.38336762688614 818.1981472908093 L 485.46380144032923 817.9130461248285 Q 499.4324485596708 818.2576388888889 500.17837277091905 832.3409919410151 L 499.4618930041152 850.3626808984911 Q 499.64933127572016 864.2837808641975 485.6493038408779 864.4708736282579 L 84.69146604938271 864.0215749314129 Q 69.45510288065843 863.7654783950617 70.66282750342936 849.6544590192044 L 69.41918724279836 831.3563948902606 Q 70.4497633744856 818.3027314814815 83.48561042524005 817.7584147805212 Z" fill="none" stroke="#3f8f4f" stroke-width="2.4" stroke-linejoin="round" stroke-linecap="round" opacity="0.5"/><text x="92" y="846" font-family="'Segoe Print','Ink Free','Comic Sans MS',cursive" font-size="15" font-style="normal" font-weight="normal" fill="#6b6258" text-anchor="start">c0  recompute → matches</text><rect x="380" y="824" width="112" height="34" rx="9" fill="#3f8f4f"/><text x="436" y="847" font-family="'Segoe Print','Ink Free','Comic Sans MS',cursive" font-size="14" font-style="normal" font-weight="bold" fill="#fff" text-anchor="middle">PASS</text><rect x="72" y="877" width="426" height="42" rx="14" fill="#dcefdd" opacity="0.9"/><path d="M 84.31172325102881 874.233807441701 L 485.3388648834019 873.8781301440329 Q 499.47227366255146 873.870920781893 499.63574074074074 888.3204792524006 L 500.47337620027434 906.1678883744856 Q 499.50767489711933 920.3378034979423 486.65790637860084 920.083076989026 L 84.19492455418381 920.2891280864197 Q 70.06529835390947 920.3935751028806 69.64488683127573 905.9882673182442 L 70.37017661179698 887.3085159465021 Q 70.34514403292181 874.4382355967078 83.8633487654321 874.5027169067215 Z" fill="none" stroke="#3f8f4f" stroke-width="2.4" stroke-linejoin="round" stroke-linecap="round" opacity="1"/><path d="M 84.06579903978052 874.4927186213991 L 485.47174725651575 873.6170824759945 Q 500.3256790123457 874.594079218107 499.7484585048011 888.1084027777778 L 500.55008573388204 905.6432604595336 Q 500.2240432098765 919.6794804526749 485.8848216735254 920.0222350823045 L 83.9043501371742 919.6564754801097 Q 69.97796296296296 920.4871039094651 69.54155521262003 905.3008822016461 L 69.40120713305899 888.1233942043896 Q 69.98743827160494 873.8169495884773 84.58532578875172 873.8110108024691 Z" fill="none" stroke="#3f8f4f" stroke-width="2.4" stroke-linejoin="round" stroke-linecap="round" opacity="0.5"/><text x="92" y="902" font-family="'Segoe Print','Ink Free','Comic Sans MS',cursive" font-size="15" font-style="normal" font-weight="normal" fill="#6b6258" text-anchor="start">c1  recompute → matches</text><rect x="380" y="880" width="112" height="34" rx="9" fill="#3f8f4f"/><text x="436" y="903" font-family="'Segoe Print','Ink Free','Comic Sans MS',cursive" font-size="14" font-style="normal" font-weight="bold" fill="#fff" text-anchor="middle">PASS</text><rect x="72" y="933" width="426" height="42" rx="14" fill="#f7dcd7" opacity="0.9"/><path d="M 83.50732338820302 930.1106832990398 L 485.36121399176955 930.5471870713305 Q 500.5852572016461 930.5308179012345 500.689365569273 944.085009430727 L 499.96856481481484 962.5171922153635 Q 500.25769547325103 975.4791820987655 486.6140003429355 976.513039266118 L 83.47406378600823 976.1631232853224 Q 69.91902263374486 975.4831018518519 69.74789437585734 962.4614394718793 L 69.74437757201646 943.9516469478738 Q 69.96923868312757 929.7425771604939 83.95771433470507 930.3968767146777 Z" fill="none" stroke="#c8483a" stroke-width="2.4" stroke-linejoin="round" stroke-linecap="round" opacity="1"/><path d="M 83.84617283950617 930.3494298696845 L 485.543067558299 929.3672093621399 Q 500.2658230452675 929.4737294238683 500.24611625514405 944.4231387174211 L 500.5090603566529 962.2662268518518 Q 499.89011316872427 976.5961676954732 486.01087448559673 976.6394401577503 L 84.52875685871057 976.063392489712 Q 70.43662551440329 976.507494855967 69.60711419753086 962.0650008573389 L 70.06882373113855 944.6253729423868 Q 69.90536008230453 929.6077109053498 83.50150205761317 930.5664874828532 Z" fill="none" stroke="#c8483a" stroke-width="2.4" stroke-linejoin="round" stroke-linecap="round" opacity="0.5"/><text x="92" y="958" font-family="'Segoe Print','Ink Free','Comic Sans MS',cursive" font-size="15" font-style="normal" font-weight="normal" fill="#6b6258" text-anchor="start">c2  recompute → differs</text><rect x="380" y="936" width="112" height="34" rx="9" fill="#c8483a"/><text x="436" y="959" font-family="'Segoe Print','Ink Free','Comic Sans MS',cursive" font-size="14" font-style="normal" font-weight="bold" fill="#fff" text-anchor="middle">FAIL</text><rect x="72" y="989" width="426" height="42" rx="14" fill="#fbeecb" opacity="0.9"/><path d="M 83.59592764060356 985.6188348765432 L 485.879036351166 985.4129518175583 Q 500.13774691358026 985.837628600823 499.5767352537723 1000.3104449588477 L 499.54441186556926 1018.6706112825789 Q 500.55833333333334 1031.71191872428 486.4779132373114 1032.366869855967 L 83.35237997256516 1031.5819744513033 Q 70.03447530864197 1032.5084310699588 69.96612825788752 1018.2547762345679 L 69.76960733882031 999.4137079903978 Q 70.16617283950617 986.22716563786 83.90804698216735 986.4408307613169 Z" fill="none" stroke="#caa23b" stroke-width="2.4" stroke-linejoin="round" stroke-linecap="round" opacity="1"/><path d="M 83.86276063100136 986.6324785665295 L 486.17899691358025 986.5461428326474 Q 499.4602880658436 985.9928858024691 500.09850651577506 999.5049528463649 L 500.46227366255147 1018.5031850137174 Q 500.1882818930041 1031.4634722222222 485.54351165980796 1032.6977974965707 L 84.11036522633745 1032.60281978738 Q 70.1051646090535 1032.3896141975308 70.06444272976681 1018.4776791838134 L 69.58993827160494 999.9117138203018 Q 69.61093621399176 985.571311728395 83.32796639231825 985.3112645747599 Z" fill="none" stroke="#caa23b" stroke-width="2.4" stroke-linejoin="round" stroke-linecap="round" opacity="0.5"/><text x="92" y="1014" font-family="'Segoe Print','Ink Free','Comic Sans MS',cursive" font-size="15" font-style="normal" font-weight="normal" fill="#6b6258" text-anchor="start">c3  recompute → no stored hash</text><rect x="380" y="992" width="112" height="34" rx="9" fill="#caa23b"/><text x="436" y="1015" font-family="'Segoe Print','Ink Free','Comic Sans MS',cursive" font-size="14" font-style="normal" font-weight="bold" fill="#fff" text-anchor="middle">UNVERIFIED</text><text x="70" y="1088" font-family="'Segoe Print','Ink Free','Comic Sans MS',cursive" font-size="15" font-style="italic" font-weight="normal" fill="#6b6258" text-anchor="start">SHA-256 stored on write, re-hashed on read — silent change is impossible.</text><rect x="562" y="803" width="466" height="146" rx="14" fill="#dde8f3" opacity="0.9"/><path d="M 573.3676594650206 800.2965337791495 L 1016.3565294924554 799.7766589506173 Q 1030.514927983539 800.3987602880659 1029.910195473251 813.4239463305898 L 1030.2206704389575 936.3516023662552 Q 1030.1281069958848 950.1767541152263 1016.284212962963 950.5606181412894 L 573.6051817558299 950.2913605967078 Q 559.8635082304527 950.3436368312757 559.556378600823 935.973215877915 L 560.3767301097394 814.062600308642 Q 560.1211316872428 800.099408436214 573.5933590534979 799.528406207133 Z" fill="none" stroke="#3b6ea5" stroke-width="2.4" stroke-linejoin="round" stroke-linecap="round" opacity="1"/><path d="M 574.2019821673525 800.1319881687243 L 1016.1178069272977 799.8180804183813 Q 1029.5387037037037 799.7367335390946 1029.547604595336 813.5661908436214 L 1030.2368861454047 935.97388803155 Q 1029.681512345679 949.5999125514403 1016.2802640603567 950.231875 L 573.5652246227709 949.6500660150891 Q 560.4798765432099 949.5853137860082 560.066627229081 935.7957073045268 L 559.9694890260631 813.3132810356653 Q 559.9337962962964 800.0929372427984 573.3733607681755 800.1243544238683 Z" fill="none" stroke="#3b6ea5" stroke-width="2.4" stroke-linejoin="round" stroke-linecap="round" opacity="0.5"/><text x="795" y="845" font-family="'Segoe Print','Ink Free','Comic Sans MS',cursive" font-size="21" font-style="normal" font-weight="bold" fill="#3b6ea5" text-anchor="middle">MemWal (core layer)</text><text x="795" y="884.42" font-family="'Segoe Print','Ink Free','Comic Sans MS',cursive" font-size="15" font-style="normal" font-weight="normal" fill="#6b6258" text-anchor="middle">a one-line summary per checkpoint →</text><text x="795" y="912.14" font-family="'Segoe Print','Ink Free','Comic Sans MS',cursive" font-size="15" font-style="normal" font-weight="normal" fill="#2b2622" text-anchor="middle">“when did I last have a passing build?”</text><text x="795" y="939.86" font-family="'Segoe Print','Ink Free','Comic Sans MS',cursive" font-size="15" font-style="normal" font-weight="normal" fill="#6b6258" text-anchor="middle">→ recall + load that exact state back</text><text x="795" y="975" font-family="'Segoe Print','Ink Free','Comic Sans MS',cursive" font-size="14" font-style="italic" font-weight="normal" fill="#6b6258" text-anchor="middle">memory that is queryable, not just storable</text><rect x="1082" y="803" width="516" height="96" rx="14" fill="#fbe3d6" opacity="0.9"/><path d="M 1094.5163460219478 799.4301997599451 L 1585.583816872428 800.3765800754459 Q 1600.0575411522634 800.2438425925926 1600.272462277092 814.4674888545953 L 1600.0096862139917 885.3873259602195 Q 1599.8410905349795 899.4366512345679 1585.7045044581619 900.0918149862825 L 1094.267037037037 900.4073311042524 Q 1080.4135288065843 900.4850154320987 1080.6791392318244 886.1698448216736 L 1079.4225360082305 813.7032621742112 Q 1079.774855967078 800.1889351851852 1093.4630332647462 799.7682450274349 Z" fill="none" stroke="#e2683c" stroke-width="2.4" stroke-linejoin="round" stroke-linecap="round" opacity="1"/><path d="M 1093.3428497942386 800.5417858367626 L 1585.4459173525377 800.1731455761317 Q 1599.4195884773662 799.4460133744856 1600.4946450617283 814.5895687585734 L 1600.0748731138547 885.4906815843622 Q 1599.4216563786008 899.4795627572016 1586.5445884773662 900.3132776063101 L 1094.6908659122084 900.0396990740741 Q 1079.9459465020577 900.3020010288066 1079.959346707819 886.1795790466392 L 1080.360562414266 813.4868647119341 Q 1080.1924588477366 799.9133281893004 1094.605586419753 800.6551397462277 Z" fill="none" stroke="#e2683c" stroke-width="2.4" stroke-linejoin="round" stroke-linecap="round" opacity="0.5"/><text x="1340" y="817.42" font-family="'Segoe Print','Ink Free','Comic Sans MS',cursive" font-size="19" font-style="normal" font-weight="bold" fill="#e2683c" text-anchor="middle">all-in-one MCP server  ·  11 tools</text><text x="1340" y="845.14" font-family="'Segoe Print','Ink Free','Comic Sans MS',cursive" font-size="14" font-style="normal" font-weight="normal" fill="#6b6258" text-anchor="middle">save load list resume diff fork rollback</text><text x="1340" y="872.86" font-family="'Segoe Print','Ink Free','Comic Sans MS',cursive" font-size="14" font-style="normal" font-weight="normal" fill="#6b6258" text-anchor="middle">handoff adopt verify search  + tuskpoint_info</text><text x="1340" y="928" font-family="'Segoe Print','Ink Free','Comic Sans MS',cursive" font-size="14" font-style="normal" font-weight="normal" fill="#6b6258" text-anchor="middle">Claude · Cursor · Windsurf · VS Code · Codex</text><rect x="1082" y="973" width="516" height="116" rx="14" fill="#fbf8f1" opacity="0.9"/><path d="M 1093.5506292866942 969.698845164609 L 1586.6547256515776 969.8991349451303 Q 1600.128549382716 969.4913940329218 1600.1277331961592 983.7423070987654 L 1600.294175240055 1075.419757373114 Q 1600.3935802469136 1089.7434619341564 1585.7585408093278 1090.0839171810699 L 1093.6095507544583 1090.3274168381345 Q 1080.5141666666666 1090.5177520576133 1080.309718792867 1075.7903420781893 L 1080.467518861454 984.2887800068587 Q 1079.6903086419752 969.8142644032922 1093.4479338134431 969.3282484567901 Z" fill="none" stroke="#3a342e" stroke-width="2.4" stroke-linejoin="round" stroke-linecap="round" opacity="1"/><path d="M 1094.534746227709 969.7705135459533 L 1585.4423405349794 970.5051654663923 Q 1600.3770164609055 970.4836882716049 1600.2778995198903 984.6392841220851 L 1600.4774691358025 1076.4362817215363 Q 1599.616121399177 1089.7987191358025 1586.1636454046638 1090.5617584019205 L 1094.4107458847736 1090.0433239026063 Q 1080.0441152263375 1090.1693055555556 1080.6586505486969 1076.0046030521262 L 1079.7088374485597 983.7929586762689 Q 1079.6609979423868 969.5954475308642 1093.4295816186557 969.434484739369 Z" fill="none" stroke="#3a342e" stroke-width="2.4" stroke-linejoin="round" stroke-linecap="round" opacity="0.5"/><text x="1340" y="989.42" font-family="'Segoe Print','Ink Free','Comic Sans MS',cursive" font-size="18" font-style="normal" font-weight="bold" fill="#2b2622" text-anchor="middle">Four real surfaces</text><text x="1340" y="1017.14" font-family="'Segoe Print','Ink Free','Comic Sans MS',cursive" font-size="14" font-style="normal" font-weight="normal" fill="#6b6258" text-anchor="middle">Python library · MCP server ·</text><text x="1340" y="1044.8600000000001" font-family="'Segoe Print','Ink Free','Comic Sans MS',cursive" font-size="14" font-style="normal" font-weight="normal" fill="#6b6258" text-anchor="middle">live FastAPI on testnet · dashboard tuskpoint.xyz</text><text x="1340" y="1078" font-family="'Segoe Print','Ink Free','Comic Sans MS',cursive" font-size="13" font-style="normal" font-weight="bold" fill="#e2683c" text-anchor="middle">every checkpoint, diff, search, fork, audit hits live Walrus — nothing mocked</text>
  
  <text x="1640" y="1154" font-family="'Segoe Print','Ink Free','Comic Sans MS',cursive" font-size="20" font-style="normal" font-weight="bold" fill="#e2683c" text-anchor="end">TuskPoint</text>
  <text x="1640" y="1174" font-family="'Segoe Print','Ink Free','Comic Sans MS',cursive" font-size="13" font-style="normal" font-weight="normal" fill="#6b6258" text-anchor="end">verifiable LangGraph checkpoints on Walrus</text>
</svg>